<svg width="146" height="49" viewBox="0 0 146 49" fill="none" xmlns="http://www.w3.org/2000/svg">
<mask id="path-1-outside-1_618_4401" maskUnits="userSpaceOnUse" x="0" y="0" width="146" height="49" fill="black">
<rect fill="white" width="146" height="49"/>
<path d="M2.584 47V32.984C2.584 27.3093 5.08 23.96 10.072 22.936L22.36 20.44C23.8107 20.1413 24.536 19.1813 24.536 17.56V12.696C24.536 10.8613 23.6187 9.944 21.784 9.944H3.864V5.784L7.64 2.84H21.976C28.9307 2.84 32.408 6.31733 32.408 13.272V17.368C32.408 23.0427 29.912 26.392 24.92 27.416L12.632 29.912C11.1813 30.2107 10.456 31.1707 10.456 32.792V39.896H32.408V47H2.584ZM38.944 44.056V39.896H58.784C60.6187 39.896 61.536 38.9787 61.536 37.144V29.784C61.536 27.9493 60.6187 27.032 58.784 27.032H39.584V2.84H67.488V9.944H47.456V19.928H58.976C65.9307 19.928 69.408 23.4053 69.408 30.36V36.568C69.408 43.5227 65.9307 47 58.976 47H42.72L38.944 44.056ZM76.584 36.568V15.32C76.584 7 80.7653 2.84 89.128 2.84H100.072L103.848 5.784V9.944H88.872C85.928 9.944 84.456 11.416 84.456 14.36V19.928H95.976C102.931 19.928 106.408 23.4053 106.408 30.36V36.568C106.408 43.5227 102.931 47 95.976 47H87.016C80.0613 47 76.584 43.5227 76.584 36.568ZM84.456 37.144C84.456 38.9787 85.3733 39.896 87.208 39.896H95.784C97.6187 39.896 98.536 38.9787 98.536 37.144V29.784C98.536 27.9493 97.6187 27.032 95.784 27.032H84.456V37.144ZM113.904 28.824V22.296H125.104V10.52H131.888V22.296H143.088V28.824H131.888V40.6H125.104V28.824H113.904Z"/>
</mask>
<path d="M2.584 47H0.584V49H2.584V47ZM10.072 22.936L9.67388 20.976L9.67011 20.9768L10.072 22.936ZM22.36 20.44L22.7581 22.4L22.7633 22.3989L22.36 20.44ZM3.864 9.944H1.864V11.944H3.864V9.944ZM3.864 5.784L2.63427 4.20673L1.864 4.80728V5.784H3.864ZM7.64 2.84V0.839996H6.95247L6.41027 1.26273L7.64 2.84ZM24.92 27.416L25.3181 29.376L25.3219 29.3752L24.92 27.416ZM12.632 29.912L12.2339 27.952L12.2287 27.9531L12.632 29.912ZM10.456 39.896H8.456V41.896H10.456V39.896ZM32.408 39.896H34.408V37.896H32.408V39.896ZM32.408 47V49H34.408V47H32.408ZM2.584 47H4.584V32.984H2.584H0.584V47H2.584ZM2.584 32.984H4.584C4.584 30.4251 5.1471 28.6356 6.05967 27.4111C6.95326 26.212 8.34798 25.3313 10.4739 24.8952L10.072 22.936L9.67011 20.9768C6.80402 21.5647 4.45474 22.8707 2.85233 25.0209C1.2689 27.1457 0.584 29.8682 0.584 32.984H2.584ZM10.072 22.936L10.4701 24.896L22.7581 22.4L22.36 20.44L21.9619 18.48L9.67388 20.976L10.072 22.936ZM22.36 20.44L22.7633 22.3989C23.85 22.1752 24.8688 21.6533 25.5877 20.7017C26.2906 19.7714 26.536 18.6561 26.536 17.56H24.536H22.536C22.536 18.0852 22.4188 18.2606 22.3963 18.2903C22.3899 18.2987 22.3207 18.4061 21.9567 18.4811L22.36 20.44ZM24.536 17.56H26.536V12.696H24.536H22.536V17.56H24.536ZM24.536 12.696H26.536C26.536 11.4704 26.2282 10.1838 25.2622 9.21778C24.2962 8.25176 23.0096 7.944 21.784 7.944V9.944V11.944C22.393 11.944 22.4825 12.0949 22.4338 12.0462C22.3851 11.9975 22.536 12.087 22.536 12.696H24.536ZM21.784 9.944V7.944H3.864V9.944V11.944H21.784V9.944ZM3.864 9.944H5.864V5.784H3.864H1.864V9.944H3.864ZM3.864 5.784L5.09373 7.36126L8.86973 4.41726L7.64 2.84L6.41027 1.26273L2.63427 4.20673L3.864 5.784ZM7.64 2.84V4.84H21.976V2.84V0.839996H7.64V2.84ZM21.976 2.84V4.84C25.145 4.84 27.1545 5.6309 28.3858 6.86221C29.6171 8.09352 30.408 10.103 30.408 13.272H32.408H34.408C34.408 9.48638 33.4602 6.27981 31.2142 4.03378C28.9682 1.78776 25.7616 0.839996 21.976 0.839996V2.84ZM32.408 13.272H30.408V17.368H32.408H34.408V13.272H32.408ZM32.408 17.368H30.408C30.408 19.9269 29.8449 21.7164 28.9323 22.9409C28.0387 24.14 26.644 25.0207 24.5181 25.4568L24.92 27.416L25.3219 29.3752C28.188 28.7873 30.5373 27.4813 32.1397 25.3311C33.7231 23.2063 34.408 20.4838 34.408 17.368H32.408ZM24.92 27.416L24.5219 25.456L12.2339 27.952L12.632 29.912L13.0301 31.872L25.3181 29.376L24.92 27.416ZM12.632 29.912L12.2287 27.9531C11.142 28.1768 10.1232 28.6987 9.40427 29.6503C8.70143 30.5806 8.456 31.6959 8.456 32.792H10.456H12.456C12.456 32.2668 12.5732 32.0914 12.5957 32.0617C12.6021 32.0533 12.6713 31.9459 13.0353 31.8709L12.632 29.912ZM10.456 32.792H8.456V39.896H10.456H12.456V32.792H10.456ZM10.456 39.896V41.896H32.408V39.896V37.896H10.456V39.896ZM32.408 39.896H30.408V47H32.408H34.408V39.896H32.408ZM32.408 47V45H2.584V47V49H32.408V47ZM38.944 44.056H36.944V45.0327L37.7143 45.6333L38.944 44.056ZM38.944 39.896V37.896H36.944V39.896H38.944ZM39.584 27.032H37.584V29.032H39.584V27.032ZM39.584 2.84V0.839996H37.584V2.84H39.584ZM67.488 2.84H69.488V0.839996H67.488V2.84ZM67.488 9.944V11.944H69.488V9.944H67.488ZM47.456 9.944V7.944H45.456V9.944H47.456ZM47.456 19.928H45.456V21.928H47.456V19.928ZM42.72 47L41.4903 48.5773L42.0325 49H42.72V47ZM38.944 44.056H40.944V39.896H38.944H36.944V44.056H38.944ZM38.944 39.896V41.896H58.784V39.896V37.896H38.944V39.896ZM58.784 39.896V41.896C60.0096 41.896 61.2962 41.5882 62.2622 40.6222C63.2282 39.6562 63.536 38.3696 63.536 37.144H61.536H59.536C59.536 37.753 59.3851 37.8425 59.4338 37.7938C59.4825 37.7451 59.393 37.896 58.784 37.896V39.896ZM61.536 37.144H63.536V29.784H61.536H59.536V37.144H61.536ZM61.536 29.784H63.536C63.536 28.5584 63.2282 27.2718 62.2622 26.3058C61.2962 25.3398 60.0096 25.032 58.784 25.032V27.032V29.032C59.393 29.032 59.4825 29.1829 59.4338 29.1342C59.3851 29.0855 59.536 29.175 59.536 29.784H61.536ZM58.784 27.032V25.032H39.584V27.032V29.032H58.784V27.032ZM39.584 27.032H41.584V2.84H39.584H37.584V27.032H39.584ZM39.584 2.84V4.84H67.488V2.84V0.839996H39.584V2.84ZM67.488 2.84H65.488V9.944H67.488H69.488V2.84H67.488ZM67.488 9.944V7.944H47.456V9.944V11.944H67.488V9.944ZM47.456 9.944H45.456V19.928H47.456H49.456V9.944H47.456ZM47.456 19.928V21.928H58.976V19.928V17.928H47.456V19.928ZM58.976 19.928V21.928C62.145 21.928 64.1545 22.7189 65.3858 23.9502C66.6171 25.1815 67.408 27.191 67.408 30.36H69.408H71.408C71.408 26.5744 70.4602 23.3678 68.2142 21.1218C65.9682 18.8758 62.7616 17.928 58.976 17.928V19.928ZM69.408 30.36H67.408V36.568H69.408H71.408V30.36H69.408ZM69.408 36.568H67.408C67.408 39.737 66.6171 41.7465 65.3858 42.9778C64.1545 44.2091 62.145 45 58.976 45V47V49C62.7616 49 65.9682 48.0522 68.2142 45.8062C70.4602 43.5602 71.408 40.3536 71.408 36.568H69.408ZM58.976 47V45H42.72V47V49H58.976V47ZM42.72 47L43.9497 45.4227L40.1737 42.4787L38.944 44.056L37.7143 45.6333L41.4903 48.5773L42.72 47ZM100.072 2.84L101.302 1.26273L100.76 0.839996H100.072V2.84ZM103.848 5.784H105.848V4.80728L105.078 4.20673L103.848 5.784ZM103.848 9.944V11.944H105.848V9.944H103.848ZM84.456 19.928H82.456V21.928H84.456V19.928ZM84.456 27.032V25.032H82.456V27.032H84.456ZM76.584 36.568H78.584V15.32H76.584H74.584V36.568H76.584ZM76.584 15.32H78.584C78.584 11.4709 79.5495 8.95083 81.1306 7.37782C82.7135 5.80294 85.2524 4.84 89.128 4.84V2.84V0.839996C84.6409 0.839996 80.9078 1.95705 78.3094 4.54217C75.7092 7.12916 74.584 10.8491 74.584 15.32H76.584ZM89.128 2.84V4.84H100.072V2.84V0.839996H89.128V2.84ZM100.072 2.84L98.8423 4.41726L102.618 7.36126L103.848 5.784L105.078 4.20673L101.302 1.26273L100.072 2.84ZM103.848 5.784H101.848V9.944H103.848H105.848V5.784H103.848ZM103.848 9.944V7.944H88.872V9.944V11.944H103.848V9.944ZM88.872 9.944V7.944C87.0917 7.944 85.3891 8.39042 84.1458 9.63378C82.9024 10.8771 82.456 12.5797 82.456 14.36H84.456H86.456C86.456 13.1963 86.7456 12.6909 86.9742 12.4622C87.2029 12.2336 87.7083 11.944 88.872 11.944V9.944ZM84.456 14.36H82.456V19.928H84.456H86.456V14.36H84.456ZM84.456 19.928V21.928H95.976V19.928V17.928H84.456V19.928ZM95.976 19.928V21.928C99.145 21.928 101.154 22.7189 102.386 23.9502C103.617 25.1815 104.408 27.191 104.408 30.36H106.408H108.408C108.408 26.5744 107.46 23.3678 105.214 21.1218C102.968 18.8758 99.7616 17.928 95.976 17.928V19.928ZM106.408 30.36H104.408V36.568H106.408H108.408V30.36H106.408ZM106.408 36.568H104.408C104.408 39.737 103.617 41.7465 102.386 42.9778C101.154 44.2091 99.145 45 95.976 45V47V49C99.7616 49 102.968 48.0522 105.214 45.8062C107.46 43.5602 108.408 40.3536 108.408 36.568H106.408ZM95.976 47V45H87.016V47V49H95.976V47ZM87.016 47V45C83.847 45 81.8375 44.2091 80.6062 42.9778C79.3749 41.7465 78.584 39.737 78.584 36.568H76.584H74.584C74.584 40.3536 75.5318 43.5602 77.7778 45.8062C80.0238 48.0522 83.2304 49 87.016 49V47ZM84.456 37.144H82.456C82.456 38.3696 82.7638 39.6562 83.7298 40.6222C84.6958 41.5882 85.9824 41.896 87.208 41.896V39.896V37.896C86.599 37.896 86.5095 37.7451 86.5582 37.7938C86.6069 37.8425 86.456 37.753 86.456 37.144H84.456ZM87.208 39.896V41.896H95.784V39.896V37.896H87.208V39.896ZM95.784 39.896V41.896C97.0096 41.896 98.2962 41.5882 99.2622 40.6222C100.228 39.6562 100.536 38.3696 100.536 37.144H98.536H96.536C96.536 37.753 96.3851 37.8425 96.4338 37.7938C96.4825 37.7451 96.393 37.896 95.784 37.896V39.896ZM98.536 37.144H100.536V29.784H98.536H96.536V37.144H98.536ZM98.536 29.784H100.536C100.536 28.5584 100.228 27.2718 99.2622 26.3058C98.2962 25.3398 97.0096 25.032 95.784 25.032V27.032V29.032C96.393 29.032 96.4825 29.1829 96.4338 29.1342C96.3851 29.0855 96.536 29.175 96.536 29.784H98.536ZM95.784 27.032V25.032H84.456V27.032V29.032H95.784V27.032ZM84.456 27.032H82.456V37.144H84.456H86.456V27.032H84.456ZM113.904 28.824H111.904V30.824H113.904V28.824ZM113.904 22.296V20.296H111.904V22.296H113.904ZM125.104 22.296V24.296H127.104V22.296H125.104ZM125.104 10.52V8.52H123.104V10.52H125.104ZM131.888 10.52H133.888V8.52H131.888V10.52ZM131.888 22.296H129.888V24.296H131.888V22.296ZM143.088 22.296H145.088V20.296H143.088V22.296ZM143.088 28.824V30.824H145.088V28.824H143.088ZM131.888 28.824V26.824H129.888V28.824H131.888ZM131.888 40.6V42.6H133.888V40.6H131.888ZM125.104 40.6H123.104V42.6H125.104V40.6ZM125.104 28.824H127.104V26.824H125.104V28.824ZM113.904 28.824H115.904V22.296H113.904H111.904V28.824H113.904ZM113.904 22.296V24.296H125.104V22.296V20.296H113.904V22.296ZM125.104 22.296H127.104V10.52H125.104H123.104V22.296H125.104ZM125.104 10.52V12.52H131.888V10.52V8.52H125.104V10.52ZM131.888 10.52H129.888V22.296H131.888H133.888V10.52H131.888ZM131.888 22.296V24.296H143.088V22.296V20.296H131.888V22.296ZM143.088 22.296H141.088V28.824H143.088H145.088V22.296H143.088ZM143.088 28.824V26.824H131.888V28.824V30.824H143.088V28.824ZM131.888 28.824H129.888V40.6H131.888H133.888V28.824H131.888ZM131.888 40.6V38.6H125.104V40.6V42.6H131.888V40.6ZM125.104 40.6H127.104V28.824H125.104H123.104V40.6H125.104ZM125.104 28.824V26.824H113.904V28.824V30.824H125.104V28.824Z" fill="#E33C30" mask="url(#path-1-outside-1_618_4401)"/>
</svg>
