<svg width="144" height="49" viewBox="0 0 144 49" fill="none" xmlns="http://www.w3.org/2000/svg">
<mask id="path-1-outside-1_618_4404" maskUnits="userSpaceOnUse" x="0" y="0" width="144" height="49" fill="black">
<rect fill="white" width="144" height="49"/>
<path d="M2.376 47V39.896H12.616V9.944H4.232V5.784L8.008 2.84H20.424V39.896H29.64V47H2.376ZM39.376 47V39.896H49.616V9.944H41.232V5.784L45.008 2.84H57.424V39.896H66.64V47H39.376ZM74.584 47V32.984C74.584 27.3093 77.08 23.96 82.072 22.936L94.36 20.44C95.8107 20.1413 96.536 19.1813 96.536 17.56V12.696C96.536 10.8613 95.6187 9.944 93.784 9.944H75.864V5.784L79.64 2.84H93.976C100.931 2.84 104.408 6.31733 104.408 13.272V17.368C104.408 23.0427 101.912 26.392 96.92 27.416L84.632 29.912C83.1813 30.2107 82.456 31.1707 82.456 32.792V39.896H104.408V47H74.584ZM111.904 28.824V22.296H123.104V10.52H129.888V22.296H141.088V28.824H129.888V40.6H123.104V28.824H111.904Z"/>
</mask>
<path d="M2.376 47H0.376V49H2.376V47ZM2.376 39.896V37.896H0.376V39.896H2.376ZM12.616 39.896V41.896H14.616V39.896H12.616ZM12.616 9.944H14.616V7.944H12.616V9.944ZM4.232 9.944H2.232V11.944H4.232V9.944ZM4.232 5.784L3.00227 4.20673L2.232 4.80728V5.784H4.232ZM8.008 2.84V0.839996H7.32047L6.77827 1.26273L8.008 2.84ZM20.424 2.84H22.424V0.839996H20.424V2.84ZM20.424 39.896H18.424V41.896H20.424V39.896ZM29.64 39.896H31.64V37.896H29.64V39.896ZM29.64 47V49H31.64V47H29.64ZM2.376 47H4.376V39.896H2.376H0.376V47H2.376ZM2.376 39.896V41.896H12.616V39.896V37.896H2.376V39.896ZM12.616 39.896H14.616V9.944H12.616H10.616V39.896H12.616ZM12.616 9.944V7.944H4.232V9.944V11.944H12.616V9.944ZM4.232 9.944H6.232V5.784H4.232H2.232V9.944H4.232ZM4.232 5.784L5.46173 7.36126L9.23773 4.41726L8.008 2.84L6.77827 1.26273L3.00227 4.20673L4.232 5.784ZM8.008 2.84V4.84H20.424V2.84V0.839996H8.008V2.84ZM20.424 2.84H18.424V39.896H20.424H22.424V2.84H20.424ZM20.424 39.896V41.896H29.64V39.896V37.896H20.424V39.896ZM29.64 39.896H27.64V47H29.64H31.64V39.896H29.64ZM29.64 47V45H2.376V47V49H29.64V47ZM39.376 47H37.376V49H39.376V47ZM39.376 39.896V37.896H37.376V39.896H39.376ZM49.616 39.896V41.896H51.616V39.896H49.616ZM49.616 9.944H51.616V7.944H49.616V9.944ZM41.232 9.944H39.232V11.944H41.232V9.944ZM41.232 5.784L40.0023 4.20673L39.232 4.80728V5.784H41.232ZM45.008 2.84V0.839996H44.3205L43.7783 1.26273L45.008 2.84ZM57.424 2.84H59.424V0.839996H57.424V2.84ZM57.424 39.896H55.424V41.896H57.424V39.896ZM66.64 39.896H68.64V37.896H66.64V39.896ZM66.64 47V49H68.64V47H66.64ZM39.376 47H41.376V39.896H39.376H37.376V47H39.376ZM39.376 39.896V41.896H49.616V39.896V37.896H39.376V39.896ZM49.616 39.896H51.616V9.944H49.616H47.616V39.896H49.616ZM49.616 9.944V7.944H41.232V9.944V11.944H49.616V9.944ZM41.232 9.944H43.232V5.784H41.232H39.232V9.944H41.232ZM41.232 5.784L42.4617 7.36126L46.2377 4.41726L45.008 2.84L43.7783 1.26273L40.0023 4.20673L41.232 5.784ZM45.008 2.84V4.84H57.424V2.84V0.839996H45.008V2.84ZM57.424 2.84H55.424V39.896H57.424H59.424V2.84H57.424ZM57.424 39.896V41.896H66.64V39.896V37.896H57.424V39.896ZM66.64 39.896H64.64V47H66.64H68.64V39.896H66.64ZM66.64 47V45H39.376V47V49H66.64V47ZM74.584 47H72.584V49H74.584V47ZM82.072 22.936L81.6739 20.976L81.6701 20.9768L82.072 22.936ZM94.36 20.44L94.7581 22.4L94.7633 22.3989L94.36 20.44ZM75.864 9.944H73.864V11.944H75.864V9.944ZM75.864 5.784L74.6343 4.20673L73.864 4.80728V5.784H75.864ZM79.64 2.84V0.839996H78.9525L78.4103 1.26273L79.64 2.84ZM96.92 27.416L97.3181 29.376L97.3219 29.3752L96.92 27.416ZM84.632 29.912L84.2339 27.952L84.2287 27.9531L84.632 29.912ZM82.456 39.896H80.456V41.896H82.456V39.896ZM104.408 39.896H106.408V37.896H104.408V39.896ZM104.408 47V49H106.408V47H104.408ZM74.584 47H76.584V32.984H74.584H72.584V47H74.584ZM74.584 32.984H76.584C76.584 30.4251 77.1471 28.6356 78.0597 27.4111C78.9533 26.212 80.348 25.3313 82.4739 24.8952L82.072 22.936L81.6701 20.9768C78.804 21.5647 76.4547 22.8707 74.8523 25.0209C73.2689 27.1457 72.584 29.8682 72.584 32.984H74.584ZM82.072 22.936L82.4701 24.896L94.7581 22.4L94.36 20.44L93.9619 18.48L81.6739 20.976L82.072 22.936ZM94.36 20.44L94.7633 22.3989C95.85 22.1752 96.8688 21.6533 97.5877 20.7017C98.2906 19.7714 98.536 18.6561 98.536 17.56H96.536H94.536C94.536 18.0852 94.4188 18.2606 94.3963 18.2903C94.3899 18.2987 94.3207 18.4061 93.9567 18.4811L94.36 20.44ZM96.536 17.56H98.536V12.696H96.536H94.536V17.56H96.536ZM96.536 12.696H98.536C98.536 11.4704 98.2282 10.1838 97.2622 9.21778C96.2962 8.25176 95.0096 7.944 93.784 7.944V9.944V11.944C94.393 11.944 94.4825 12.0949 94.4338 12.0462C94.3851 11.9975 94.536 12.087 94.536 12.696H96.536ZM93.784 9.944V7.944H75.864V9.944V11.944H93.784V9.944ZM75.864 9.944H77.864V5.784H75.864H73.864V9.944H75.864ZM75.864 5.784L77.0937 7.36126L80.8697 4.41726L79.64 2.84L78.4103 1.26273L74.6343 4.20673L75.864 5.784ZM79.64 2.84V4.84H93.976V2.84V0.839996H79.64V2.84ZM93.976 2.84V4.84C97.145 4.84 99.1545 5.6309 100.386 6.86221C101.617 8.09352 102.408 10.103 102.408 13.272H104.408H106.408C106.408 9.48638 105.46 6.27981 103.214 4.03378C100.968 1.78776 97.7616 0.839996 93.976 0.839996V2.84ZM104.408 13.272H102.408V17.368H104.408H106.408V13.272H104.408ZM104.408 17.368H102.408C102.408 19.9269 101.845 21.7164 100.932 22.9409C100.039 24.14 98.644 25.0207 96.5181 25.4568L96.92 27.416L97.3219 29.3752C100.188 28.7873 102.537 27.4813 104.14 25.3311C105.723 23.2063 106.408 20.4838 106.408 17.368H104.408ZM96.92 27.416L96.5219 25.456L84.2339 27.952L84.632 29.912L85.0301 31.872L97.3181 29.376L96.92 27.416ZM84.632 29.912L84.2287 27.9531C83.142 28.1768 82.1232 28.6987 81.4043 29.6503C80.7014 30.5806 80.456 31.6959 80.456 32.792H82.456H84.456C84.456 32.2668 84.5732 32.0914 84.5957 32.0617C84.6021 32.0533 84.6713 31.9459 85.0353 31.8709L84.632 29.912ZM82.456 32.792H80.456V39.896H82.456H84.456V32.792H82.456ZM82.456 39.896V41.896H104.408V39.896V37.896H82.456V39.896ZM104.408 39.896H102.408V47H104.408H106.408V39.896H104.408ZM104.408 47V45H74.584V47V49H104.408V47ZM111.904 28.824H109.904V30.824H111.904V28.824ZM111.904 22.296V20.296H109.904V22.296H111.904ZM123.104 22.296V24.296H125.104V22.296H123.104ZM123.104 10.52V8.52H121.104V10.52H123.104ZM129.888 10.52H131.888V8.52H129.888V10.52ZM129.888 22.296H127.888V24.296H129.888V22.296ZM141.088 22.296H143.088V20.296H141.088V22.296ZM141.088 28.824V30.824H143.088V28.824H141.088ZM129.888 28.824V26.824H127.888V28.824H129.888ZM129.888 40.6V42.6H131.888V40.6H129.888ZM123.104 40.6H121.104V42.6H123.104V40.6ZM123.104 28.824H125.104V26.824H123.104V28.824ZM111.904 28.824H113.904V22.296H111.904H109.904V28.824H111.904ZM111.904 22.296V24.296H123.104V22.296V20.296H111.904V22.296ZM123.104 22.296H125.104V10.52H123.104H121.104V22.296H123.104ZM123.104 10.52V12.52H129.888V10.52V8.52H123.104V10.52ZM129.888 10.52H127.888V22.296H129.888H131.888V10.52H129.888ZM129.888 22.296V24.296H141.088V22.296V20.296H129.888V22.296ZM141.088 22.296H139.088V28.824H141.088H143.088V22.296H141.088ZM141.088 28.824V26.824H129.888V28.824V30.824H141.088V28.824ZM129.888 28.824H127.888V40.6H129.888H131.888V28.824H129.888ZM129.888 40.6V38.6H123.104V40.6V42.6H129.888V40.6ZM123.104 40.6H125.104V28.824H123.104H121.104V40.6H123.104ZM123.104 28.824V26.824H111.904V28.824V30.824H123.104V28.824Z" fill="#E33C30" mask="url(#path-1-outside-1_618_4404)"/>
</svg>
