<svg width="107" height="49" viewBox="0 0 107 49" fill="none" xmlns="http://www.w3.org/2000/svg">
<mask id="path-1-outside-1_618_4398" maskUnits="userSpaceOnUse" x="0" y="0" width="107" height="49" fill="black">
<rect fill="white" width="107" height="49"/>
<path d="M2.376 47V39.896H12.616V9.944H4.232V5.784L8.008 2.84H20.424V39.896H29.64V47H2.376ZM37.584 36.568V13.272C37.584 6.31733 41.0613 2.84 48.016 2.84H56.976C63.9307 2.84 67.408 6.31733 67.408 13.272V36.568C67.408 43.5227 63.9307 47 56.976 47H48.016C41.0613 47 37.584 43.5227 37.584 36.568ZM45.456 37.144C45.456 38.9787 46.3733 39.896 48.208 39.896H56.784C58.6187 39.896 59.536 38.9787 59.536 37.144V12.696C59.536 10.8613 58.6187 9.944 56.784 9.944H48.208C46.3733 9.944 45.456 10.8613 45.456 12.696V37.144ZM74.904 28.824V22.296H86.104V10.52H92.888V22.296H104.088V28.824H92.888V40.6H86.104V28.824H74.904Z"/>
</mask>
<path d="M2.376 47H0.376V49H2.376V47ZM2.376 39.896V37.896H0.376V39.896H2.376ZM12.616 39.896V41.896H14.616V39.896H12.616ZM12.616 9.944H14.616V7.944H12.616V9.944ZM4.232 9.944H2.232V11.944H4.232V9.944ZM4.232 5.784L3.00227 4.20673L2.232 4.80728V5.784H4.232ZM8.008 2.84V0.839996H7.32047L6.77827 1.26273L8.008 2.84ZM20.424 2.84H22.424V0.839996H20.424V2.84ZM20.424 39.896H18.424V41.896H20.424V39.896ZM29.64 39.896H31.64V37.896H29.64V39.896ZM29.64 47V49H31.64V47H29.64ZM2.376 47H4.376V39.896H2.376H0.376V47H2.376ZM2.376 39.896V41.896H12.616V39.896V37.896H2.376V39.896ZM12.616 39.896H14.616V9.944H12.616H10.616V39.896H12.616ZM12.616 9.944V7.944H4.232V9.944V11.944H12.616V9.944ZM4.232 9.944H6.232V5.784H4.232H2.232V9.944H4.232ZM4.232 5.784L5.46173 7.36126L9.23773 4.41726L8.008 2.84L6.77827 1.26273L3.00227 4.20673L4.232 5.784ZM8.008 2.84V4.84H20.424V2.84V0.839996H8.008V2.84ZM20.424 2.84H18.424V39.896H20.424H22.424V2.84H20.424ZM20.424 39.896V41.896H29.64V39.896V37.896H20.424V39.896ZM29.64 39.896H27.64V47H29.64H31.64V39.896H29.64ZM29.64 47V45H2.376V47V49H29.64V47ZM37.584 36.568H39.584V13.272H37.584H35.584V36.568H37.584ZM37.584 13.272H39.584C39.584 10.103 40.3749 8.09352 41.6062 6.86221C42.8375 5.6309 44.847 4.84 48.016 4.84V2.84V0.839996C44.2304 0.839996 41.0238 1.78776 38.7778 4.03378C36.5318 6.27981 35.584 9.48638 35.584 13.272H37.584ZM48.016 2.84V4.84H56.976V2.84V0.839996H48.016V2.84ZM56.976 2.84V4.84C60.145 4.84 62.1545 5.6309 63.3858 6.86221C64.6171 8.09352 65.408 10.103 65.408 13.272H67.408H69.408C69.408 9.48638 68.4602 6.27981 66.2142 4.03378C63.9682 1.78776 60.7616 0.839996 56.976 0.839996V2.84ZM67.408 13.272H65.408V36.568H67.408H69.408V13.272H67.408ZM67.408 36.568H65.408C65.408 39.737 64.6171 41.7465 63.3858 42.9778C62.1545 44.2091 60.145 45 56.976 45V47V49C60.7616 49 63.9682 48.0522 66.2142 45.8062C68.4602 43.5602 69.408 40.3536 69.408 36.568H67.408ZM56.976 47V45H48.016V47V49H56.976V47ZM48.016 47V45C44.847 45 42.8375 44.2091 41.6062 42.9778C40.3749 41.7465 39.584 39.737 39.584 36.568H37.584H35.584C35.584 40.3536 36.5318 43.5602 38.7778 45.8062C41.0238 48.0522 44.2304 49 48.016 49V47ZM45.456 37.144H43.456C43.456 38.3696 43.7638 39.6562 44.7298 40.6222C45.6958 41.5882 46.9824 41.896 48.208 41.896V39.896V37.896C47.599 37.896 47.5095 37.7451 47.5582 37.7938C47.6069 37.8425 47.456 37.753 47.456 37.144H45.456ZM48.208 39.896V41.896H56.784V39.896V37.896H48.208V39.896ZM56.784 39.896V41.896C58.0096 41.896 59.2962 41.5882 60.2622 40.6222C61.2282 39.6562 61.536 38.3696 61.536 37.144H59.536H57.536C57.536 37.753 57.3851 37.8425 57.4338 37.7938C57.4825 37.7451 57.393 37.896 56.784 37.896V39.896ZM59.536 37.144H61.536V12.696H59.536H57.536V37.144H59.536ZM59.536 12.696H61.536C61.536 11.4704 61.2282 10.1838 60.2622 9.21778C59.2962 8.25176 58.0096 7.944 56.784 7.944V9.944V11.944C57.393 11.944 57.4825 12.0949 57.4338 12.0462C57.3851 11.9975 57.536 12.087 57.536 12.696H59.536ZM56.784 9.944V7.944H48.208V9.944V11.944H56.784V9.944ZM48.208 9.944V7.944C46.9824 7.944 45.6958 8.25176 44.7298 9.21778C43.7638 10.1838 43.456 11.4704 43.456 12.696H45.456H47.456C47.456 12.087 47.6069 11.9975 47.5582 12.0462C47.5095 12.0949 47.599 11.944 48.208 11.944V9.944ZM45.456 12.696H43.456V37.144H45.456H47.456V12.696H45.456ZM74.904 28.824H72.904V30.824H74.904V28.824ZM74.904 22.296V20.296H72.904V22.296H74.904ZM86.104 22.296V24.296H88.104V22.296H86.104ZM86.104 10.52V8.52H84.104V10.52H86.104ZM92.888 10.52H94.888V8.52H92.888V10.52ZM92.888 22.296H90.888V24.296H92.888V22.296ZM104.088 22.296H106.088V20.296H104.088V22.296ZM104.088 28.824V30.824H106.088V28.824H104.088ZM92.888 28.824V26.824H90.888V28.824H92.888ZM92.888 40.6V42.6H94.888V40.6H92.888ZM86.104 40.6H84.104V42.6H86.104V40.6ZM86.104 28.824H88.104V26.824H86.104V28.824ZM74.904 28.824H76.904V22.296H74.904H72.904V28.824H74.904ZM74.904 22.296V24.296H86.104V22.296V20.296H74.904V22.296ZM86.104 22.296H88.104V10.52H86.104H84.104V22.296H86.104ZM86.104 10.52V12.52H92.888V10.52V8.52H86.104V10.52ZM92.888 10.52H90.888V22.296H92.888H94.888V10.52H92.888ZM92.888 22.296V24.296H104.088V22.296V20.296H92.888V22.296ZM104.088 22.296H102.088V28.824H104.088H106.088V22.296H104.088ZM104.088 28.824V26.824H92.888V28.824V30.824H104.088V28.824ZM92.888 28.824H90.888V40.6H92.888H94.888V28.824H92.888ZM92.888 40.6V38.6H86.104V40.6V42.6H92.888V40.6ZM86.104 40.6H88.104V28.824H86.104H84.104V40.6H86.104ZM86.104 28.824V26.824H74.904V28.824V30.824H86.104V28.824Z" fill="#E33C30" mask="url(#path-1-outside-1_618_4398)"/>
</svg>
