<svg width="68" height="51" viewBox="0 0 68 51" fill="none" xmlns="http://www.w3.org/2000/svg">
<mask id="path-1-inside-1_524_1352" fill="white">
<path fill-rule="evenodd" clip-rule="evenodd" d="M42.7603 1.00501C41.7712 1.35777 41.4172 1.97138 41.4172 3.33312V4.21714H40.5322H39.6471L39.1599 4.46568C38.6009 4.7508 38.1812 5.28005 38.069 5.84087L37.9915 6.22857H35.3043H32.6172V8.23484V10.2411L25.9229 10.2777L19.2286 10.3143L18.4919 10.5925C18.0867 10.7455 17.4635 11.0909 17.1069 11.3602L16.4586 11.8496L12.5636 17.5378C10.4213 20.6664 8.6686 23.2855 8.6686 23.3581C8.6686 23.4308 8.38575 23.5866 8.04003 23.7042C5.25697 24.6516 2.68385 27.0279 1.44066 29.7985C1.22934 30.2695 0.932777 31.0848 0.781542 31.6103L0.506479 32.5657L0.462102 40.36L0.417725 48.1543L0.557393 48.6278C0.735279 49.2308 1.33418 49.9144 1.9938 50.2674L2.50861 50.5428H6.46861H10.4286L10.9315 50.2716C11.5732 49.9252 12.06 49.4112 12.3077 48.8183L12.5029 48.3509V45.0783V41.8057H22.5584H32.6139L32.647 46.1743L32.68 50.5428L50.1229 50.5748L67.5658 50.6066V28.4176V6.22857H64.8629H62.16V5.93289C62.16 5.56844 61.7138 4.89449 61.2401 4.54349L60.8859 4.28113L59.8886 4.23575L58.8915 4.19049L58.8907 3.54381C58.8893 2.1724 58.321 1.24173 57.3141 0.962272C56.9806 0.869621 54.5851 0.825872 50.0286 0.829015L43.24 0.833917L42.7603 1.00501ZM42.9812 2.38385L42.7372 2.56211L42.6952 4.08099L42.6533 5.6H41.1803C40.2024 5.6 39.6568 5.65066 39.5566 5.75085L39.4058 5.90171V8.07657V10.2514H50.1543H60.9029V8.20517V6.1588L60.7072 5.87946L60.5115 5.6H59.01H57.5086V4.11091V2.62183L57.2787 2.41377L57.0489 2.20571H50.137H43.2252L42.9812 2.38385ZM34 28.4171V49.2228H50.0915H66.1829V28.4171V7.61143H64.1715H62.16V8.23572V8.86002L63.5115 8.89572L64.8629 8.93143L64.8948 24.1445L64.9268 39.3574L60.6855 43.5988L56.4442 47.84H45.9136H35.3829V28.3543V8.86857H36.7029H38.0229V8.24V7.61143H36.0115H34V28.4171ZM40.6629 8.24V8.86857H41.3543H42.0457V8.24V7.61143H41.3543H40.6629V8.24ZM43.4286 8.24V8.86857H44.0572H44.6857V8.24V7.61143H44.0572H43.4286V8.24ZM46.0686 8.24V8.86857H50.0915H54.1143V8.24V7.61143H50.0915H46.0686V8.24ZM55.4972 8.24V8.86857H56.1886H56.88V8.24V7.61143H56.1886H55.4972V8.24ZM58.1372 8.24V8.86857H58.8286H59.52V8.24V7.61143H58.8286H58.1372V8.24ZM36.6711 28.3857L36.7029 46.52H46.0686H55.4343L55.4675 42.4657L55.5007 38.4114H59.5218H63.5429V24.3314V10.2514H62.8515H62.16V10.9429V11.6343H50.0915H38.0229V10.9429V10.2514H37.3311H36.6392L36.6711 28.3857ZM19.0618 11.8208C18.4033 12.0264 17.6666 12.5207 17.3233 12.9872C16.7401 13.7801 10.4915 22.9435 10.4915 23.006C10.4915 23.0436 15.4697 23.0743 21.5543 23.0743H32.6172V17.3543V11.6343L26.1115 11.6427L19.6057 11.6511L19.0618 11.8208ZM38.7772 16.9765V17.6686H49.8466H60.9161L60.878 17.0086L60.84 16.3486L49.8086 16.3165L38.7772 16.2843V16.9765ZM38.7772 20.3714V21.0629H45.1258H51.4743V20.3714V19.68H45.1258H38.7772V20.3714ZM10.4335 24.4712C9.26386 24.6417 8.38613 24.9346 7.16003 25.5637L6.0286 26.1442L4.83407 27.3435C3.78863 28.3931 3.02315 29.4236 2.75274 30.1457L2.67027 30.3657H7.91482H13.1592L13.1081 31.7171L13.057 33.0686L12.787 33.6658C12.4124 34.4943 11.3516 35.5752 10.5052 35.9908L9.80003 36.3371L5.80861 36.3751L1.81718 36.4131V38.418V40.4228H17.2172H32.6172V32.3771V24.3314L21.9 24.3468C16.0055 24.3552 10.8457 24.4113 10.4335 24.4712ZM38.7772 26.4063V27.0985L49.8086 27.0663L60.84 27.0343L60.878 26.3743L60.9161 25.7143H49.8466H38.7772V26.4063ZM38.7772 29.7371V30.3657H45.1258H51.4743V29.7371V29.1086H45.1258H38.7772V29.7371ZM15.8972 31.7486V32.3771H23.2515H30.6058V31.7486V31.12H23.2515H15.8972V31.7486ZM2.13083 31.9057C1.94503 32.4312 1.82296 33.3211 1.82019 34.1686L1.81718 35.1428H5.3143H8.81154L9.48147 34.9438L10.1515 34.745L10.8139 34.0825L11.4764 33.4201L11.6753 32.75C11.7848 32.3815 11.8743 32.0055 11.8743 31.9143V31.7486H7.03042H2.1864L2.13083 31.9057ZM15.8972 35.08V35.7714H23.2515H30.6058V35.08V34.3886H23.2515H15.8972V35.08ZM38.7772 35.7714V36.4H49.84H60.9029V35.7714V35.1428H49.84H38.7772V35.7714ZM38.7772 39.1017V39.7943H45.1323H51.4875L51.4494 39.1343L51.4115 38.4743L45.0943 38.4417L38.7772 38.4092V39.1017ZM56.88 42.6533V45.5121L59.7086 42.6857C61.2643 41.1311 62.5372 39.8446 62.5372 39.8267C62.5372 39.8089 61.2643 39.7943 59.7086 39.7943H56.88V42.6533ZM1.81718 45.0462V48.2869L2.01342 48.567C2.12128 48.7211 2.37309 48.9317 2.57285 49.035L2.93616 49.2228H6.46861H10.0011L10.3644 49.035C10.5641 48.9317 10.8159 48.7211 10.9238 48.567L11.12 48.2869V45.0462V41.8057H6.46861H1.81718V45.0462Z"/>
</mask>
<path fill-rule="evenodd" clip-rule="evenodd" d="M42.7603 1.00501C41.7712 1.35777 41.4172 1.97138 41.4172 3.33312V4.21714H40.5322H39.6471L39.1599 4.46568C38.6009 4.7508 38.1812 5.28005 38.069 5.84087L37.9915 6.22857H35.3043H32.6172V8.23484V10.2411L25.9229 10.2777L19.2286 10.3143L18.4919 10.5925C18.0867 10.7455 17.4635 11.0909 17.1069 11.3602L16.4586 11.8496L12.5636 17.5378C10.4213 20.6664 8.6686 23.2855 8.6686 23.3581C8.6686 23.4308 8.38575 23.5866 8.04003 23.7042C5.25697 24.6516 2.68385 27.0279 1.44066 29.7985C1.22934 30.2695 0.932777 31.0848 0.781542 31.6103L0.506479 32.5657L0.462102 40.36L0.417725 48.1543L0.557393 48.6278C0.735279 49.2308 1.33418 49.9144 1.9938 50.2674L2.50861 50.5428H6.46861H10.4286L10.9315 50.2716C11.5732 49.9252 12.06 49.4112 12.3077 48.8183L12.5029 48.3509V45.0783V41.8057H22.5584H32.6139L32.647 46.1743L32.68 50.5428L50.1229 50.5748L67.5658 50.6066V28.4176V6.22857H64.8629H62.16V5.93289C62.16 5.56844 61.7138 4.89449 61.2401 4.54349L60.8859 4.28113L59.8886 4.23575L58.8915 4.19049L58.8907 3.54381C58.8893 2.1724 58.321 1.24173 57.3141 0.962272C56.9806 0.869621 54.5851 0.825872 50.0286 0.829015L43.24 0.833917L42.7603 1.00501ZM42.9812 2.38385L42.7372 2.56211L42.6952 4.08099L42.6533 5.6H41.1803C40.2024 5.6 39.6568 5.65066 39.5566 5.75085L39.4058 5.90171V8.07657V10.2514H50.1543H60.9029V8.20517V6.1588L60.7072 5.87946L60.5115 5.6H59.01H57.5086V4.11091V2.62183L57.2787 2.41377L57.0489 2.20571H50.137H43.2252L42.9812 2.38385ZM34 28.4171V49.2228H50.0915H66.1829V28.4171V7.61143H64.1715H62.16V8.23572V8.86002L63.5115 8.89572L64.8629 8.93143L64.8948 24.1445L64.9268 39.3574L60.6855 43.5988L56.4442 47.84H45.9136H35.3829V28.3543V8.86857H36.7029H38.0229V8.24V7.61143H36.0115H34V28.4171ZM40.6629 8.24V8.86857H41.3543H42.0457V8.24V7.61143H41.3543H40.6629V8.24ZM43.4286 8.24V8.86857H44.0572H44.6857V8.24V7.61143H44.0572H43.4286V8.24ZM46.0686 8.24V8.86857H50.0915H54.1143V8.24V7.61143H50.0915H46.0686V8.24ZM55.4972 8.24V8.86857H56.1886H56.88V8.24V7.61143H56.1886H55.4972V8.24ZM58.1372 8.24V8.86857H58.8286H59.52V8.24V7.61143H58.8286H58.1372V8.24ZM36.6711 28.3857L36.7029 46.52H46.0686H55.4343L55.4675 42.4657L55.5007 38.4114H59.5218H63.5429V24.3314V10.2514H62.8515H62.16V10.9429V11.6343H50.0915H38.0229V10.9429V10.2514H37.3311H36.6392L36.6711 28.3857ZM19.0618 11.8208C18.4033 12.0264 17.6666 12.5207 17.3233 12.9872C16.7401 13.7801 10.4915 22.9435 10.4915 23.006C10.4915 23.0436 15.4697 23.0743 21.5543 23.0743H32.6172V17.3543V11.6343L26.1115 11.6427L19.6057 11.6511L19.0618 11.8208ZM38.7772 16.9765V17.6686H49.8466H60.9161L60.878 17.0086L60.84 16.3486L49.8086 16.3165L38.7772 16.2843V16.9765ZM38.7772 20.3714V21.0629H45.1258H51.4743V20.3714V19.68H45.1258H38.7772V20.3714ZM10.4335 24.4712C9.26386 24.6417 8.38613 24.9346 7.16003 25.5637L6.0286 26.1442L4.83407 27.3435C3.78863 28.3931 3.02315 29.4236 2.75274 30.1457L2.67027 30.3657H7.91482H13.1592L13.1081 31.7171L13.057 33.0686L12.787 33.6658C12.4124 34.4943 11.3516 35.5752 10.5052 35.9908L9.80003 36.3371L5.80861 36.3751L1.81718 36.4131V38.418V40.4228H17.2172H32.6172V32.3771V24.3314L21.9 24.3468C16.0055 24.3552 10.8457 24.4113 10.4335 24.4712ZM38.7772 26.4063V27.0985L49.8086 27.0663L60.84 27.0343L60.878 26.3743L60.9161 25.7143H49.8466H38.7772V26.4063ZM38.7772 29.7371V30.3657H45.1258H51.4743V29.7371V29.1086H45.1258H38.7772V29.7371ZM15.8972 31.7486V32.3771H23.2515H30.6058V31.7486V31.12H23.2515H15.8972V31.7486ZM2.13083 31.9057C1.94503 32.4312 1.82296 33.3211 1.82019 34.1686L1.81718 35.1428H5.3143H8.81154L9.48147 34.9438L10.1515 34.745L10.8139 34.0825L11.4764 33.4201L11.6753 32.75C11.7848 32.3815 11.8743 32.0055 11.8743 31.9143V31.7486H7.03042H2.1864L2.13083 31.9057ZM15.8972 35.08V35.7714H23.2515H30.6058V35.08V34.3886H23.2515H15.8972V35.08ZM38.7772 35.7714V36.4H49.84H60.9029V35.7714V35.1428H49.84H38.7772V35.7714ZM38.7772 39.1017V39.7943H45.1323H51.4875L51.4494 39.1343L51.4115 38.4743L45.0943 38.4417L38.7772 38.4092V39.1017ZM56.88 42.6533V45.5121L59.7086 42.6857C61.2643 41.1311 62.5372 39.8446 62.5372 39.8267C62.5372 39.8089 61.2643 39.7943 59.7086 39.7943H56.88V42.6533ZM1.81718 45.0462V48.2869L2.01342 48.567C2.12128 48.7211 2.37309 48.9317 2.57285 49.035L2.93616 49.2228H6.46861H10.0011L10.3644 49.035C10.5641 48.9317 10.8159 48.7211 10.9238 48.567L11.12 48.2869V45.0462V41.8057H6.46861H1.81718V45.0462Z" fill="white" stroke="#DC323F" stroke-width="0.4" mask="url(#path-1-inside-1_524_1352)"/>
</svg>
