<svg width="68" height="51" viewBox="0 0 68 51" fill="none" xmlns="http://www.w3.org/2000/svg">
<mask id="path-1-inside-1_1059_3740" fill="white">
<path fill-rule="evenodd" clip-rule="evenodd" d="M42.7602 1.00501C41.7711 1.35777 41.4171 1.97138 41.4171 3.33312V4.21714H40.5321H39.6471L39.1598 4.46568C38.6009 4.7508 38.1811 5.28005 38.069 5.84087L37.9914 6.22857H35.3043H32.6171V8.23484V10.2411L25.9228 10.2777L19.2285 10.3143L18.4919 10.5925C18.0867 10.7455 17.4634 11.0909 17.1069 11.3602L16.4586 11.8496L12.5635 17.5378C10.4213 20.6664 8.66854 23.2855 8.66854 23.3581C8.66854 23.4308 8.38569 23.5866 8.03997 23.7042C5.25691 24.6516 2.68379 27.0279 1.4406 29.7985C1.22928 30.2695 0.932716 31.0848 0.781481 31.6103L0.506418 32.5657L0.462041 40.36L0.417664 48.1543L0.557332 48.6278C0.735218 49.2308 1.33412 49.9144 1.99374 50.2674L2.50854 50.5428H6.46854H10.4285L10.9314 50.2716C11.5732 49.9252 12.0599 49.4112 12.3076 48.8183L12.5028 48.3509V45.0783V41.8057H22.5583H32.6138L32.6469 46.1743L32.68 50.5428L50.1228 50.5748L67.5657 50.6066V28.4176V6.22857H64.8628H62.16V5.93289C62.16 5.56844 61.7137 4.89449 61.24 4.54349L60.8859 4.28113L59.8886 4.23575L58.8914 4.19049L58.8907 3.54381C58.8893 2.1724 58.3209 1.24173 57.3141 0.962272C56.9805 0.869621 54.5851 0.825872 50.0285 0.829015L43.24 0.833917L42.7602 1.00501ZM42.9811 2.38385L42.7371 2.56211L42.6951 4.08099L42.6533 5.6H41.1803C40.2023 5.6 39.6567 5.65066 39.5565 5.75085L39.4057 5.90171V8.07657V10.2514H50.1543H60.9028V8.20517V6.1588L60.7071 5.87946L60.5115 5.6H59.01H57.5085V4.11091V2.62183L57.2786 2.41377L57.0488 2.20571H50.1369H43.2251L42.9811 2.38385ZM34 28.4171V49.2228H50.0914H66.1828V28.4171V7.61143H64.1714H62.16V8.23572V8.86002L63.5114 8.89572L64.8628 8.93143L64.8948 24.1445L64.9267 39.3574L60.6855 43.5988L56.4441 47.84H45.9135H35.3828V28.3543V8.86857H36.7028H38.0228V8.24V7.61143H36.0114H34V28.4171ZM40.6628 8.24V8.86857H41.3543H42.0457V8.24V7.61143H41.3543H40.6628V8.24ZM43.4285 8.24V8.86857H44.0571H44.6857V8.24V7.61143H44.0571H43.4285V8.24ZM46.0685 8.24V8.86857H50.0914H54.1143V8.24V7.61143H50.0914H46.0685V8.24ZM55.4971 8.24V8.86857H56.1885H56.88V8.24V7.61143H56.1885H55.4971V8.24ZM58.1371 8.24V8.86857H58.8285H59.52V8.24V7.61143H58.8285H58.1371V8.24ZM36.671 28.3857L36.7028 46.52H46.0685H55.4343L55.4674 42.4657L55.5006 38.4114H59.5217H63.5428V24.3314V10.2514H62.8514H62.16V10.9429V11.6343H50.0914H38.0228V10.9429V10.2514H37.331H36.6391L36.671 28.3857ZM19.0617 11.8208C18.4032 12.0264 17.6665 12.5207 17.3232 12.9872C16.74 13.7801 10.4914 22.9435 10.4914 23.006C10.4914 23.0436 15.4697 23.0743 21.5543 23.0743H32.6171V17.3543V11.6343L26.1114 11.6427L19.6057 11.6511L19.0617 11.8208ZM38.7771 16.9765V17.6686H49.8465H60.916L60.8779 17.0086L60.84 16.3486L49.8085 16.3165L38.7771 16.2843V16.9765ZM38.7771 20.3714V21.0629H45.1257H51.4743V20.3714V19.68H45.1257H38.7771V20.3714ZM10.4334 24.4712C9.2638 24.6417 8.38606 24.9346 7.15997 25.5637L6.02854 26.1442L4.83401 27.3435C3.78857 28.3931 3.02309 29.4236 2.75268 30.1457L2.67021 30.3657H7.91476H13.1592L13.108 31.7171L13.057 33.0686L12.7869 33.6658C12.4123 34.4943 11.3515 35.5752 10.5051 35.9908L9.79997 36.3371L5.80854 36.3751L1.81712 36.4131V38.418V40.4228H17.2171H32.6171V32.3771V24.3314L21.9 24.3468C16.0055 24.3552 10.8457 24.4113 10.4334 24.4712ZM38.7771 26.4063V27.0985L49.8085 27.0663L60.84 27.0343L60.8779 26.3743L60.916 25.7143H49.8465H38.7771V26.4063ZM38.7771 29.7371V30.3657H45.1257H51.4743V29.7371V29.1086H45.1257H38.7771V29.7371ZM15.8971 31.7486V32.3771H23.2514H30.6057V31.7486V31.12H23.2514H15.8971V31.7486ZM2.13077 31.9057C1.94497 32.4312 1.8229 33.3211 1.82013 34.1686L1.81712 35.1428H5.31424H8.81148L9.48141 34.9438L10.1515 34.745L10.8139 34.0825L11.4764 33.4201L11.6753 32.75C11.7848 32.3815 11.8743 32.0055 11.8743 31.9143V31.7486H7.03036H2.18634L2.13077 31.9057ZM15.8971 35.08V35.7714H23.2514H30.6057V35.08V34.3886H23.2514H15.8971V35.08ZM38.7771 35.7714V36.4H49.84H60.9028V35.7714V35.1428H49.84H38.7771V35.7714ZM38.7771 39.1017V39.7943H45.1322H51.4875L51.4494 39.1343L51.4114 38.4743L45.0943 38.4417L38.7771 38.4092V39.1017ZM56.88 42.6533V45.5121L59.7085 42.6857C61.2643 41.1311 62.5371 39.8446 62.5371 39.8267C62.5371 39.8089 61.2643 39.7943 59.7085 39.7943H56.88V42.6533ZM1.81712 45.0462V48.2869L2.01336 48.567C2.12122 48.7211 2.37302 48.9317 2.57278 49.035L2.9361 49.2228H6.46854H10.001L10.3643 49.035C10.5641 48.9317 10.8159 48.7211 10.9237 48.567L11.12 48.2869V45.0462V41.8057H6.46854H1.81712V45.0462Z"/>
</mask>
<path fill-rule="evenodd" clip-rule="evenodd" d="M42.7602 1.00501C41.7711 1.35777 41.4171 1.97138 41.4171 3.33312V4.21714H40.5321H39.6471L39.1598 4.46568C38.6009 4.7508 38.1811 5.28005 38.069 5.84087L37.9914 6.22857H35.3043H32.6171V8.23484V10.2411L25.9228 10.2777L19.2285 10.3143L18.4919 10.5925C18.0867 10.7455 17.4634 11.0909 17.1069 11.3602L16.4586 11.8496L12.5635 17.5378C10.4213 20.6664 8.66854 23.2855 8.66854 23.3581C8.66854 23.4308 8.38569 23.5866 8.03997 23.7042C5.25691 24.6516 2.68379 27.0279 1.4406 29.7985C1.22928 30.2695 0.932716 31.0848 0.781481 31.6103L0.506418 32.5657L0.462041 40.36L0.417664 48.1543L0.557332 48.6278C0.735218 49.2308 1.33412 49.9144 1.99374 50.2674L2.50854 50.5428H6.46854H10.4285L10.9314 50.2716C11.5732 49.9252 12.0599 49.4112 12.3076 48.8183L12.5028 48.3509V45.0783V41.8057H22.5583H32.6138L32.6469 46.1743L32.68 50.5428L50.1228 50.5748L67.5657 50.6066V28.4176V6.22857H64.8628H62.16V5.93289C62.16 5.56844 61.7137 4.89449 61.24 4.54349L60.8859 4.28113L59.8886 4.23575L58.8914 4.19049L58.8907 3.54381C58.8893 2.1724 58.3209 1.24173 57.3141 0.962272C56.9805 0.869621 54.5851 0.825872 50.0285 0.829015L43.24 0.833917L42.7602 1.00501ZM42.9811 2.38385L42.7371 2.56211L42.6951 4.08099L42.6533 5.6H41.1803C40.2023 5.6 39.6567 5.65066 39.5565 5.75085L39.4057 5.90171V8.07657V10.2514H50.1543H60.9028V8.20517V6.1588L60.7071 5.87946L60.5115 5.6H59.01H57.5085V4.11091V2.62183L57.2786 2.41377L57.0488 2.20571H50.1369H43.2251L42.9811 2.38385ZM34 28.4171V49.2228H50.0914H66.1828V28.4171V7.61143H64.1714H62.16V8.23572V8.86002L63.5114 8.89572L64.8628 8.93143L64.8948 24.1445L64.9267 39.3574L60.6855 43.5988L56.4441 47.84H45.9135H35.3828V28.3543V8.86857H36.7028H38.0228V8.24V7.61143H36.0114H34V28.4171ZM40.6628 8.24V8.86857H41.3543H42.0457V8.24V7.61143H41.3543H40.6628V8.24ZM43.4285 8.24V8.86857H44.0571H44.6857V8.24V7.61143H44.0571H43.4285V8.24ZM46.0685 8.24V8.86857H50.0914H54.1143V8.24V7.61143H50.0914H46.0685V8.24ZM55.4971 8.24V8.86857H56.1885H56.88V8.24V7.61143H56.1885H55.4971V8.24ZM58.1371 8.24V8.86857H58.8285H59.52V8.24V7.61143H58.8285H58.1371V8.24ZM36.671 28.3857L36.7028 46.52H46.0685H55.4343L55.4674 42.4657L55.5006 38.4114H59.5217H63.5428V24.3314V10.2514H62.8514H62.16V10.9429V11.6343H50.0914H38.0228V10.9429V10.2514H37.331H36.6391L36.671 28.3857ZM19.0617 11.8208C18.4032 12.0264 17.6665 12.5207 17.3232 12.9872C16.74 13.7801 10.4914 22.9435 10.4914 23.006C10.4914 23.0436 15.4697 23.0743 21.5543 23.0743H32.6171V17.3543V11.6343L26.1114 11.6427L19.6057 11.6511L19.0617 11.8208ZM38.7771 16.9765V17.6686H49.8465H60.916L60.8779 17.0086L60.84 16.3486L49.8085 16.3165L38.7771 16.2843V16.9765ZM38.7771 20.3714V21.0629H45.1257H51.4743V20.3714V19.68H45.1257H38.7771V20.3714ZM10.4334 24.4712C9.2638 24.6417 8.38606 24.9346 7.15997 25.5637L6.02854 26.1442L4.83401 27.3435C3.78857 28.3931 3.02309 29.4236 2.75268 30.1457L2.67021 30.3657H7.91476H13.1592L13.108 31.7171L13.057 33.0686L12.7869 33.6658C12.4123 34.4943 11.3515 35.5752 10.5051 35.9908L9.79997 36.3371L5.80854 36.3751L1.81712 36.4131V38.418V40.4228H17.2171H32.6171V32.3771V24.3314L21.9 24.3468C16.0055 24.3552 10.8457 24.4113 10.4334 24.4712ZM38.7771 26.4063V27.0985L49.8085 27.0663L60.84 27.0343L60.8779 26.3743L60.916 25.7143H49.8465H38.7771V26.4063ZM38.7771 29.7371V30.3657H45.1257H51.4743V29.7371V29.1086H45.1257H38.7771V29.7371ZM15.8971 31.7486V32.3771H23.2514H30.6057V31.7486V31.12H23.2514H15.8971V31.7486ZM2.13077 31.9057C1.94497 32.4312 1.8229 33.3211 1.82013 34.1686L1.81712 35.1428H5.31424H8.81148L9.48141 34.9438L10.1515 34.745L10.8139 34.0825L11.4764 33.4201L11.6753 32.75C11.7848 32.3815 11.8743 32.0055 11.8743 31.9143V31.7486H7.03036H2.18634L2.13077 31.9057ZM15.8971 35.08V35.7714H23.2514H30.6057V35.08V34.3886H23.2514H15.8971V35.08ZM38.7771 35.7714V36.4H49.84H60.9028V35.7714V35.1428H49.84H38.7771V35.7714ZM38.7771 39.1017V39.7943H45.1322H51.4875L51.4494 39.1343L51.4114 38.4743L45.0943 38.4417L38.7771 38.4092V39.1017ZM56.88 42.6533V45.5121L59.7085 42.6857C61.2643 41.1311 62.5371 39.8446 62.5371 39.8267C62.5371 39.8089 61.2643 39.7943 59.7085 39.7943H56.88V42.6533ZM1.81712 45.0462V48.2869L2.01336 48.567C2.12122 48.7211 2.37302 48.9317 2.57278 49.035L2.9361 49.2228H6.46854H10.001L10.3643 49.035C10.5641 48.9317 10.8159 48.7211 10.9237 48.567L11.12 48.2869V45.0462V41.8057H6.46854H1.81712V45.0462Z" fill="white" stroke="#DC323F" stroke-width="0.4" mask="url(#path-1-inside-1_1059_3740)"/>
</svg>
