<svg width="84" height="46" viewBox="0 0 84 46" fill="none" xmlns="http://www.w3.org/2000/svg">
<mask id="path-1-inside-1_524_1354" fill="white">
<path fill-rule="evenodd" clip-rule="evenodd" d="M46.7235 0.466456L46.3756 0.642885L46.1869 1.35717C46.083 1.75003 45.9572 2.56546 45.9072 3.16917C45.7283 5.32974 46.3257 6.92546 48.19 9.2666C49.4709 10.8749 49.9367 11.7815 50.1416 13.0635L50.2956 14.0275L50.141 15.1565C50.056 15.7775 49.8937 16.5909 49.7805 16.9642C49.5066 17.8666 49.5183 18.0897 49.8572 18.4286C50.5786 19.15 51.1467 18.6236 51.5753 16.837L51.8959 15.5L51.8965 14L51.897 12.5L51.5807 11.5799C51.2385 10.5846 50.5447 9.47531 49.074 7.57146L48.136 6.35717L47.8537 5.44931C47.5197 4.37531 47.5003 3.43088 47.7843 2.09046C48.0067 1.04031 47.9349 0.699598 47.4347 0.431884C47.1023 0.254027 47.1466 0.251885 46.7235 0.466456ZM43.0192 6.0796C42.5893 6.62603 42.2285 7.8286 42.2287 8.71431C42.229 9.91731 42.647 10.6583 44.2896 12.368C45.9719 14.1193 46.2782 14.6815 46.2826 16.0256L46.2857 16.9796L46.5102 17.2042C46.864 17.5579 47.5256 17.4885 47.8006 17.0687L48.0365 16.7089L47.9713 15.5846L47.9063 14.4605L47.5093 13.6492C47.2545 13.1283 46.5882 12.2889 45.6482 11.3045C44.7156 10.328 44.1206 9.57946 44.0096 9.24331L43.8353 8.71531L44.0466 8.03631C44.1629 7.66274 44.3402 7.15474 44.4406 6.90731L44.6232 6.45746L44.3797 6.08588C44.051 5.58431 43.4112 5.58131 43.0192 6.0796ZM58.4652 6.44217C57.8372 6.62788 57.0477 7.44817 56.8655 8.10446C56.7672 8.45846 56.7156 12.521 56.7152 19.9643L56.7143 31.2857H52.8529H48.9915L49.2993 30.8695C49.4686 30.6405 49.723 30.1102 49.8647 29.6909L50.1223 28.9286L52.1042 28.8572L54.0859 28.7857L54.4697 28.5336C55.3683 27.9435 55.7655 26.2645 55.3709 24.7242C54.6772 22.0165 52.4443 19.94 49 18.7997C47.4759 18.2952 45.039 17.8572 43.756 17.8572H43.0487L41.9075 16.75C39.2919 14.2125 36.0245 12.2833 32.492 11.1912L31.2143 10.7962L25.2676 10.7467L19.3209 10.6973L18.4105 10.9302C16.3542 11.456 13.5889 13.168 11.4905 15.2143C10.295 16.3799 9.14289 17.9713 9.14289 18.4567C9.14289 19.0737 8.6566 21.0105 8.21732 22.1429C7.21432 24.7289 7.20246 27.2073 8.18717 28.5L8.40475 28.7857L10.6423 28.8572L12.8797 28.9286L13.1426 29.676C13.2872 30.0872 13.5436 30.6175 13.7125 30.8546L14.0195 31.2857H8.36689H2.71432L2.41603 31.584L2.11774 31.8823L2.16603 34.0483L2.21432 36.2143L2.60703 36.8823L2.9996 37.5503L3.82132 37.9537L4.64289 38.3572L11.4335 38.398L18.2242 38.439L18.379 39.4223C18.5735 40.6577 19.2303 42.077 19.9879 42.8987C20.3089 43.247 20.5715 43.573 20.5715 43.6232C20.5715 43.6733 16.1457 43.7143 10.7365 43.7143H0.901459L0.66503 43.9756C0.255602 44.4279 0.375173 44.9592 0.954887 45.2643L1.26703 45.4286H42H82.733L83.0452 45.2643C83.6356 44.9536 83.7565 44.3546 83.3102 43.9507L83.049 43.7143H77.3816C74.2646 43.7143 71.7143 43.676 71.7143 43.629C71.7143 43.5822 71.9707 43.2525 72.2842 42.8965C72.9553 42.134 73.4868 41.0927 73.7623 40L73.9605 39.2143L76.3016 39.1315L78.6429 39.0486L79.438 38.7382C79.8753 38.5675 80.3983 38.2512 80.6003 38.0353C81.6472 36.9163 81.7645 35.9703 81.6749 29.36L81.6032 24.0715L81.3653 22.5715C80.4728 16.9416 78.4275 10.9462 76.6238 8.6726C75.9268 7.79403 74.8652 7.02774 73.7858 6.62417L73.0715 6.35717L66 6.33117C61.8216 6.31574 58.739 6.36117 58.4652 6.44217ZM58.7206 8.27946L58.4286 8.57146V20.4842V32.3969L58.1786 32.7022L57.9286 33.0073L43.9522 33.005L29.9756 33.0027L30.5332 33.6799C31.2242 34.5192 31.6033 35.159 31.9293 36.0357L32.1817 36.7143H46.1507H60.1199L60.3542 36.009C61.667 32.0565 66.393 30.1712 70.179 32.0897C71.814 32.9183 73.5332 35.1742 73.7998 36.8407L73.8975 37.4524L76.1988 37.4049L78.5 37.3572L79 37.0643C79.275 36.9032 79.5963 36.5817 79.714 36.35L79.928 35.9286L79.9762 32.9915L80.0243 30.0543L79.417 29.7805C78.6633 29.4407 77.552 28.375 77.1756 27.6312C76.88 27.0472 76.5715 25.809 76.5715 25.2073C76.5715 25.0147 76.7 24.7286 76.8572 24.5715L77.1429 24.2857H78.5018H79.8606L79.7745 23.6786C79.2239 19.7925 78.3938 16.5793 77.0533 13.147C75.9579 10.3419 75.1092 9.14217 73.7463 8.47303L72.9286 8.07146L65.9706 8.02946L59.0127 7.98731L58.7206 8.27946ZM60.7097 10.2607L60.3572 10.5462V16.4275V22.3087L60.6345 22.5116L60.9117 22.7143H68.4286H75.9455L76.2228 22.5109L76.5 22.3073L76.4598 21.1182C76.3579 18.1063 74.8279 13.4503 73.337 11.6143C73.026 11.2315 72.5033 10.8436 71.8925 10.5429L70.9353 10.0715L65.9987 10.0233L61.0623 9.97531L60.7097 10.2607ZM62.0953 11.8096C62.0429 11.8619 62 13.9512 62 16.4525V21H68.3572H74.7143V20.569C74.7143 19.2113 73.6572 15.7006 72.68 13.8133C72.0063 12.5122 71.4835 12.0572 70.4322 11.8579C69.5986 11.6997 62.2476 11.6572 62.0953 11.8096ZM20.1429 15.1449V17.8612L24.6786 17.8235L29.2143 17.7857L29.2532 15.1072L29.292 12.4286H24.7175H20.1429V15.1449ZM16.9997 13.303C15.0849 14.2615 11.5715 17.1127 11.5715 17.7083C11.5715 17.8152 12.6103 17.8506 14.9643 17.824L18.3572 17.7857L18.3962 15.25C18.4185 13.7989 18.3797 12.7143 18.3056 12.7143C18.2343 12.7143 17.6466 12.9793 16.9997 13.303ZM31 15.2593V17.8679L32.3133 17.8269L33.6265 17.7857L33.9473 16.9565L34.2682 16.1272L33.4195 15.759L32.5706 15.3909L31.9759 14.3026C31.6487 13.704 31.2953 13.0875 31.1906 12.9325L31 12.6507V15.2593ZM33.4317 13.3965C33.4407 13.6902 34.0216 14.1636 34.7809 14.4957C36.2449 15.1365 36.3742 15.4029 35.8572 16.7143C35.7 17.113 35.5715 17.5332 35.5715 17.6482V17.8572H37.9286C39.225 17.8572 40.2857 17.802 40.2857 17.7346C40.2857 17.5569 38.4006 16.0755 37.0715 15.2086C35.4897 14.1772 33.4242 13.1487 33.4317 13.3965ZM10.5669 20.3929C10.4746 20.8447 10.1776 21.7913 9.90689 22.4966C9.3306 23.998 9.06017 25.5225 9.20217 26.4693L9.30332 27.1429H11.1516H13V26.88C13 26.397 13.8609 24.887 14.4286 24.3742C16.2297 22.7469 18.723 22.5502 20.7122 23.8785C21.6205 24.4849 22.2939 25.368 22.6825 26.4623L22.9242 27.1429H31.5145H40.1046L40.4152 26.2909C40.8197 25.1817 41.8885 24.0032 42.9729 23.4706L43.7857 23.0715L45.1429 23.0716L46.5 23.0717L47.3339 23.4937C48.6727 24.1712 49.5669 25.3017 50.0789 26.9643L50.1339 27.1429H51.8562H53.5786L53.7309 26.75C53.9587 26.1625 53.7736 25.0407 53.2849 24.0482C52.7963 23.0557 51.7225 21.9852 50.5326 21.3045C49.4905 20.7082 47.4646 20.0535 45.8533 19.792L44.5 19.5726L27.6173 19.572L10.7346 19.5715L10.5669 20.3929ZM60.571 23.7862C60.2885 24.1267 60.3582 24.7405 60.7123 25.0272L61.0317 25.2857H62.308H63.5845L63.944 24.9262L64.3035 24.5667L64.2057 24.2476C64.0117 23.6147 63.8886 23.5715 62.2857 23.5715H60.7493L60.571 23.7862ZM16.7143 24.902C16.021 25.1217 14.9607 26.2223 14.746 26.9452C14.3812 28.1737 14.6092 29.2955 15.4025 30.1753C16.094 30.9425 16.8582 31.2787 17.9192 31.2826C19.4699 31.2883 20.6449 30.4017 21.0865 28.8929L21.306 28.1429L21.147 27.3772C20.935 26.356 20.3109 25.5379 19.3959 25.0819L18.6582 24.7143L17.9363 24.7289C17.5392 24.7369 16.9893 24.8147 16.7143 24.902ZM43.7857 24.9809C43.0745 25.3047 42.2337 26.2205 42.0015 26.924C41.9049 27.2172 41.8515 27.8609 41.8829 28.3546L41.94 29.2525L42.3285 29.8393C42.542 30.162 42.9847 30.6035 43.3122 30.8202L43.9077 31.2143L44.9896 31.2595L46.0715 31.3045L46.851 30.8309L47.6305 30.3572L48.0296 29.5909L48.4286 28.8246L48.4255 28.0195C48.4182 26.1326 46.9902 24.7096 45.1117 24.7175C44.6926 24.7192 44.1032 24.8363 43.7857 24.9809ZM78.4286 26.1486C78.4286 26.48 79.0166 27.4172 79.458 27.7895L79.9286 28.1863L79.9716 27.2867C79.9953 26.792 79.9813 26.3002 79.9405 26.1936C79.8513 25.9613 78.4286 25.9189 78.4286 26.1486ZM22.7107 29.5126C22.6099 29.8732 22.3765 30.3903 22.1922 30.6619C22.0079 30.9335 21.8572 31.1849 21.8572 31.2206C21.8572 31.2565 26.2386 31.2857 31.5936 31.2857H41.33L41.1102 31.0357C40.8247 30.7109 40.352 29.75 40.2319 29.25L40.1375 28.8572H31.5159H22.8943L22.7107 29.5126ZM3.85717 34.3526V35.7097L4.27389 36.1763L4.69074 36.6429L11.5626 36.6826L18.4345 36.7223L18.5142 36.4683C18.7602 35.684 19.2937 34.6827 19.8819 33.9012L20.5495 33.014L12.2033 33.0046L3.85717 32.9953V34.3526ZM24.1066 33.1462C22.5749 33.5327 21.1789 34.6723 20.473 36.1119L20.0726 36.9286L20.072 38.2857L20.0715 39.6429L20.4859 40.5403C21.0225 41.7023 22.2373 42.8529 23.3879 43.2889L24.2143 43.602H25.2857H26.3572L27.1836 43.2889C28.2639 42.8796 29.5207 41.72 30.0786 40.6183L30.5 39.7857V38.3572V36.9286L30.083 36.0792C29.5375 34.9682 28.6313 34.0799 27.5065 33.5535L26.5983 33.1285L25.6206 33.0696C25.0829 33.0373 24.4016 33.0717 24.1066 33.1462ZM65.5762 33.2196C62.3958 34.1113 60.8 37.594 62.1855 40.62C63.379 43.2272 66.5916 44.3509 69.278 43.101C70.2677 42.6406 71.461 41.3739 71.8638 40.3562L72.2026 39.5L72.2043 38.2857L72.206 37.0715L71.8273 36.2546C71.3122 35.1435 70.2939 34.0923 69.2213 33.5642L68.341 33.1309L67.3492 33.0657C66.7056 33.0236 66.0829 33.0776 65.5762 33.2196ZM32.2857 38.902C32.2857 40.0385 31.4733 41.9337 30.5625 42.9217C30.2532 43.2573 30 43.573 30 43.6232C30 43.6733 37.2679 43.7143 46.1507 43.7143H62.3015L61.6406 42.903C60.6446 41.6803 60.1916 40.6547 60.0175 39.2283L59.9286 38.5L46.1072 38.4636L32.2857 38.4272V38.902Z"/>
</mask>
<path fill-rule="evenodd" clip-rule="evenodd" d="M46.7235 0.466456L46.3756 0.642885L46.1869 1.35717C46.083 1.75003 45.9572 2.56546 45.9072 3.16917C45.7283 5.32974 46.3257 6.92546 48.19 9.2666C49.4709 10.8749 49.9367 11.7815 50.1416 13.0635L50.2956 14.0275L50.141 15.1565C50.056 15.7775 49.8937 16.5909 49.7805 16.9642C49.5066 17.8666 49.5183 18.0897 49.8572 18.4286C50.5786 19.15 51.1467 18.6236 51.5753 16.837L51.8959 15.5L51.8965 14L51.897 12.5L51.5807 11.5799C51.2385 10.5846 50.5447 9.47531 49.074 7.57146L48.136 6.35717L47.8537 5.44931C47.5197 4.37531 47.5003 3.43088 47.7843 2.09046C48.0067 1.04031 47.9349 0.699598 47.4347 0.431884C47.1023 0.254027 47.1466 0.251885 46.7235 0.466456ZM43.0192 6.0796C42.5893 6.62603 42.2285 7.8286 42.2287 8.71431C42.229 9.91731 42.647 10.6583 44.2896 12.368C45.9719 14.1193 46.2782 14.6815 46.2826 16.0256L46.2857 16.9796L46.5102 17.2042C46.864 17.5579 47.5256 17.4885 47.8006 17.0687L48.0365 16.7089L47.9713 15.5846L47.9063 14.4605L47.5093 13.6492C47.2545 13.1283 46.5882 12.2889 45.6482 11.3045C44.7156 10.328 44.1206 9.57946 44.0096 9.24331L43.8353 8.71531L44.0466 8.03631C44.1629 7.66274 44.3402 7.15474 44.4406 6.90731L44.6232 6.45746L44.3797 6.08588C44.051 5.58431 43.4112 5.58131 43.0192 6.0796ZM58.4652 6.44217C57.8372 6.62788 57.0477 7.44817 56.8655 8.10446C56.7672 8.45846 56.7156 12.521 56.7152 19.9643L56.7143 31.2857H52.8529H48.9915L49.2993 30.8695C49.4686 30.6405 49.723 30.1102 49.8647 29.6909L50.1223 28.9286L52.1042 28.8572L54.0859 28.7857L54.4697 28.5336C55.3683 27.9435 55.7655 26.2645 55.3709 24.7242C54.6772 22.0165 52.4443 19.94 49 18.7997C47.4759 18.2952 45.039 17.8572 43.756 17.8572H43.0487L41.9075 16.75C39.2919 14.2125 36.0245 12.2833 32.492 11.1912L31.2143 10.7962L25.2676 10.7467L19.3209 10.6973L18.4105 10.9302C16.3542 11.456 13.5889 13.168 11.4905 15.2143C10.295 16.3799 9.14289 17.9713 9.14289 18.4567C9.14289 19.0737 8.6566 21.0105 8.21732 22.1429C7.21432 24.7289 7.20246 27.2073 8.18717 28.5L8.40475 28.7857L10.6423 28.8572L12.8797 28.9286L13.1426 29.676C13.2872 30.0872 13.5436 30.6175 13.7125 30.8546L14.0195 31.2857H8.36689H2.71432L2.41603 31.584L2.11774 31.8823L2.16603 34.0483L2.21432 36.2143L2.60703 36.8823L2.9996 37.5503L3.82132 37.9537L4.64289 38.3572L11.4335 38.398L18.2242 38.439L18.379 39.4223C18.5735 40.6577 19.2303 42.077 19.9879 42.8987C20.3089 43.247 20.5715 43.573 20.5715 43.6232C20.5715 43.6733 16.1457 43.7143 10.7365 43.7143H0.901459L0.66503 43.9756C0.255602 44.4279 0.375173 44.9592 0.954887 45.2643L1.26703 45.4286H42H82.733L83.0452 45.2643C83.6356 44.9536 83.7565 44.3546 83.3102 43.9507L83.049 43.7143H77.3816C74.2646 43.7143 71.7143 43.676 71.7143 43.629C71.7143 43.5822 71.9707 43.2525 72.2842 42.8965C72.9553 42.134 73.4868 41.0927 73.7623 40L73.9605 39.2143L76.3016 39.1315L78.6429 39.0486L79.438 38.7382C79.8753 38.5675 80.3983 38.2512 80.6003 38.0353C81.6472 36.9163 81.7645 35.9703 81.6749 29.36L81.6032 24.0715L81.3653 22.5715C80.4728 16.9416 78.4275 10.9462 76.6238 8.6726C75.9268 7.79403 74.8652 7.02774 73.7858 6.62417L73.0715 6.35717L66 6.33117C61.8216 6.31574 58.739 6.36117 58.4652 6.44217ZM58.7206 8.27946L58.4286 8.57146V20.4842V32.3969L58.1786 32.7022L57.9286 33.0073L43.9522 33.005L29.9756 33.0027L30.5332 33.6799C31.2242 34.5192 31.6033 35.159 31.9293 36.0357L32.1817 36.7143H46.1507H60.1199L60.3542 36.009C61.667 32.0565 66.393 30.1712 70.179 32.0897C71.814 32.9183 73.5332 35.1742 73.7998 36.8407L73.8975 37.4524L76.1988 37.4049L78.5 37.3572L79 37.0643C79.275 36.9032 79.5963 36.5817 79.714 36.35L79.928 35.9286L79.9762 32.9915L80.0243 30.0543L79.417 29.7805C78.6633 29.4407 77.552 28.375 77.1756 27.6312C76.88 27.0472 76.5715 25.809 76.5715 25.2073C76.5715 25.0147 76.7 24.7286 76.8572 24.5715L77.1429 24.2857H78.5018H79.8606L79.7745 23.6786C79.2239 19.7925 78.3938 16.5793 77.0533 13.147C75.9579 10.3419 75.1092 9.14217 73.7463 8.47303L72.9286 8.07146L65.9706 8.02946L59.0127 7.98731L58.7206 8.27946ZM60.7097 10.2607L60.3572 10.5462V16.4275V22.3087L60.6345 22.5116L60.9117 22.7143H68.4286H75.9455L76.2228 22.5109L76.5 22.3073L76.4598 21.1182C76.3579 18.1063 74.8279 13.4503 73.337 11.6143C73.026 11.2315 72.5033 10.8436 71.8925 10.5429L70.9353 10.0715L65.9987 10.0233L61.0623 9.97531L60.7097 10.2607ZM62.0953 11.8096C62.0429 11.8619 62 13.9512 62 16.4525V21H68.3572H74.7143V20.569C74.7143 19.2113 73.6572 15.7006 72.68 13.8133C72.0063 12.5122 71.4835 12.0572 70.4322 11.8579C69.5986 11.6997 62.2476 11.6572 62.0953 11.8096ZM20.1429 15.1449V17.8612L24.6786 17.8235L29.2143 17.7857L29.2532 15.1072L29.292 12.4286H24.7175H20.1429V15.1449ZM16.9997 13.303C15.0849 14.2615 11.5715 17.1127 11.5715 17.7083C11.5715 17.8152 12.6103 17.8506 14.9643 17.824L18.3572 17.7857L18.3962 15.25C18.4185 13.7989 18.3797 12.7143 18.3056 12.7143C18.2343 12.7143 17.6466 12.9793 16.9997 13.303ZM31 15.2593V17.8679L32.3133 17.8269L33.6265 17.7857L33.9473 16.9565L34.2682 16.1272L33.4195 15.759L32.5706 15.3909L31.9759 14.3026C31.6487 13.704 31.2953 13.0875 31.1906 12.9325L31 12.6507V15.2593ZM33.4317 13.3965C33.4407 13.6902 34.0216 14.1636 34.7809 14.4957C36.2449 15.1365 36.3742 15.4029 35.8572 16.7143C35.7 17.113 35.5715 17.5332 35.5715 17.6482V17.8572H37.9286C39.225 17.8572 40.2857 17.802 40.2857 17.7346C40.2857 17.5569 38.4006 16.0755 37.0715 15.2086C35.4897 14.1772 33.4242 13.1487 33.4317 13.3965ZM10.5669 20.3929C10.4746 20.8447 10.1776 21.7913 9.90689 22.4966C9.3306 23.998 9.06017 25.5225 9.20217 26.4693L9.30332 27.1429H11.1516H13V26.88C13 26.397 13.8609 24.887 14.4286 24.3742C16.2297 22.7469 18.723 22.5502 20.7122 23.8785C21.6205 24.4849 22.2939 25.368 22.6825 26.4623L22.9242 27.1429H31.5145H40.1046L40.4152 26.2909C40.8197 25.1817 41.8885 24.0032 42.9729 23.4706L43.7857 23.0715L45.1429 23.0716L46.5 23.0717L47.3339 23.4937C48.6727 24.1712 49.5669 25.3017 50.0789 26.9643L50.1339 27.1429H51.8562H53.5786L53.7309 26.75C53.9587 26.1625 53.7736 25.0407 53.2849 24.0482C52.7963 23.0557 51.7225 21.9852 50.5326 21.3045C49.4905 20.7082 47.4646 20.0535 45.8533 19.792L44.5 19.5726L27.6173 19.572L10.7346 19.5715L10.5669 20.3929ZM60.571 23.7862C60.2885 24.1267 60.3582 24.7405 60.7123 25.0272L61.0317 25.2857H62.308H63.5845L63.944 24.9262L64.3035 24.5667L64.2057 24.2476C64.0117 23.6147 63.8886 23.5715 62.2857 23.5715H60.7493L60.571 23.7862ZM16.7143 24.902C16.021 25.1217 14.9607 26.2223 14.746 26.9452C14.3812 28.1737 14.6092 29.2955 15.4025 30.1753C16.094 30.9425 16.8582 31.2787 17.9192 31.2826C19.4699 31.2883 20.6449 30.4017 21.0865 28.8929L21.306 28.1429L21.147 27.3772C20.935 26.356 20.3109 25.5379 19.3959 25.0819L18.6582 24.7143L17.9363 24.7289C17.5392 24.7369 16.9893 24.8147 16.7143 24.902ZM43.7857 24.9809C43.0745 25.3047 42.2337 26.2205 42.0015 26.924C41.9049 27.2172 41.8515 27.8609 41.8829 28.3546L41.94 29.2525L42.3285 29.8393C42.542 30.162 42.9847 30.6035 43.3122 30.8202L43.9077 31.2143L44.9896 31.2595L46.0715 31.3045L46.851 30.8309L47.6305 30.3572L48.0296 29.5909L48.4286 28.8246L48.4255 28.0195C48.4182 26.1326 46.9902 24.7096 45.1117 24.7175C44.6926 24.7192 44.1032 24.8363 43.7857 24.9809ZM78.4286 26.1486C78.4286 26.48 79.0166 27.4172 79.458 27.7895L79.9286 28.1863L79.9716 27.2867C79.9953 26.792 79.9813 26.3002 79.9405 26.1936C79.8513 25.9613 78.4286 25.9189 78.4286 26.1486ZM22.7107 29.5126C22.6099 29.8732 22.3765 30.3903 22.1922 30.6619C22.0079 30.9335 21.8572 31.1849 21.8572 31.2206C21.8572 31.2565 26.2386 31.2857 31.5936 31.2857H41.33L41.1102 31.0357C40.8247 30.7109 40.352 29.75 40.2319 29.25L40.1375 28.8572H31.5159H22.8943L22.7107 29.5126ZM3.85717 34.3526V35.7097L4.27389 36.1763L4.69074 36.6429L11.5626 36.6826L18.4345 36.7223L18.5142 36.4683C18.7602 35.684 19.2937 34.6827 19.8819 33.9012L20.5495 33.014L12.2033 33.0046L3.85717 32.9953V34.3526ZM24.1066 33.1462C22.5749 33.5327 21.1789 34.6723 20.473 36.1119L20.0726 36.9286L20.072 38.2857L20.0715 39.6429L20.4859 40.5403C21.0225 41.7023 22.2373 42.8529 23.3879 43.2889L24.2143 43.602H25.2857H26.3572L27.1836 43.2889C28.2639 42.8796 29.5207 41.72 30.0786 40.6183L30.5 39.7857V38.3572V36.9286L30.083 36.0792C29.5375 34.9682 28.6313 34.0799 27.5065 33.5535L26.5983 33.1285L25.6206 33.0696C25.0829 33.0373 24.4016 33.0717 24.1066 33.1462ZM65.5762 33.2196C62.3958 34.1113 60.8 37.594 62.1855 40.62C63.379 43.2272 66.5916 44.3509 69.278 43.101C70.2677 42.6406 71.461 41.3739 71.8638 40.3562L72.2026 39.5L72.2043 38.2857L72.206 37.0715L71.8273 36.2546C71.3122 35.1435 70.2939 34.0923 69.2213 33.5642L68.341 33.1309L67.3492 33.0657C66.7056 33.0236 66.0829 33.0776 65.5762 33.2196ZM32.2857 38.902C32.2857 40.0385 31.4733 41.9337 30.5625 42.9217C30.2532 43.2573 30 43.573 30 43.6232C30 43.6733 37.2679 43.7143 46.1507 43.7143H62.3015L61.6406 42.903C60.6446 41.6803 60.1916 40.6547 60.0175 39.2283L59.9286 38.5L46.1072 38.4636L32.2857 38.4272V38.902Z" fill="white" stroke="black" stroke-width="0.4" mask="url(#path-1-inside-1_524_1354)"/>
</svg>
