<svg width="68" height="57" viewBox="0 0 68 57" fill="none" xmlns="http://www.w3.org/2000/svg">
<path fill-rule="evenodd" clip-rule="evenodd" d="M60.2073 1.90844L57.9972 3.817L57.7252 5.07136L57.4532 6.32585L55.6744 8.82658C54.696 10.202 53.6046 11.7241 53.249 12.2091L52.6024 13.0909L52.0517 12.7113C51.7487 12.5026 51.1923 12.22 50.8153 12.0835L50.1297 11.8352L48.3456 11.7782L46.5615 11.7213V10.6714C46.5615 8.75086 45.949 7.1717 44.685 5.83326C43.4774 4.55455 42.1114 3.85855 40.3827 3.64122C38.9008 3.45477 37.2479 3.80198 37.2479 4.29953C37.2479 4.44103 38.9601 6.47002 40.4871 8.13834L40.7838 8.46253L40.579 9.41039C40.4663 9.93157 40.3242 10.554 40.263 10.7934L40.1518 11.2286L38.75 11.3787C37.979 11.4612 37.3355 11.5106 37.3201 11.4886C37.3047 11.4665 36.5141 10.5626 35.5631 9.47981L33.8342 7.51116H33.5601C33.2113 7.51116 33.0984 7.65944 32.8227 8.48034L32.5989 9.14665L32.595 10.4487L32.5912 11.7507L25.1934 11.7511L17.7956 11.7513L17.0894 11.9722C16.3113 12.2154 15.6114 12.6215 15.0465 13.1577C14.8435 13.3504 13.4359 15.1298 11.9185 17.1121L9.15955 20.7163H4.82717H0.49479L0.309487 20.9019C0.0519728 21.1598 -0.0475739 21.8046 0.0211288 22.7677C0.152607 24.608 1.36434 26.133 3.18399 26.7483C3.5644 26.877 3.88662 27.0112 3.90017 27.0467C3.91372 27.0823 3.40909 27.7296 2.77879 28.4855C1.48844 30.0326 1.0484 30.7733 0.844472 31.7407L0.704043 32.407L0.741902 43.2497L0.779882 54.0925L1.1921 54.8539C1.67628 55.7483 2.20897 56.2508 3.13295 56.6849L3.80377 57H7.00909H10.2144L10.8797 56.7685L11.5449 56.5369L12.2802 55.7993C12.7807 55.2971 13.0852 54.8683 13.2341 54.4559L13.4527 53.8502L13.5104 51.7604L13.5681 49.6706H33.8749H54.1817L54.1836 51.4575C54.1858 53.5588 54.3512 54.4073 54.9234 55.254C55.365 55.9075 56.2554 56.5785 57.0241 56.8372L57.508 57H60.7159H63.9239L64.7326 56.6012C65.6122 56.1675 66.2266 55.5476 66.6697 54.6468L66.9425 54.0925L66.976 45.8603L67.0095 37.6282L67.2437 37.4098C67.5961 37.0809 67.8653 36.055 67.9364 34.7693L68 33.6184L67.8019 32.8309C67.4659 31.4961 66.9427 30.5939 65.8078 29.3923C64.7032 28.2227 63.7372 27.0921 63.7372 26.9688C63.7372 26.9281 63.844 26.8948 63.9745 26.8948C65.0089 26.8948 66.6955 25.6248 67.3005 24.3904L67.6466 23.6844L67.7029 22.8158C67.7689 21.8 67.6721 21.1615 67.4129 20.9019L67.2276 20.7163H62.8988H58.5701L56.9806 18.6605C56.1065 17.5298 55.3912 16.5461 55.3912 16.4744C55.3912 16.4028 56.6137 14.6451 58.1079 12.5686L60.8246 8.79302L61.9463 8.12162L63.068 7.4501L63.5931 6.17829C64.9612 2.86393 65.3052 1.94672 65.2419 1.78136C65.1407 1.51738 62.9407 0 62.659 0C62.5212 0 61.4674 0.820291 60.2073 1.90844ZM60.8153 2.83994L58.9378 4.45569L58.7798 5.38029C58.693 5.88887 58.6435 6.32306 58.6697 6.34523C58.9177 6.55458 60.4604 7.63231 60.512 7.63231C60.5651 7.63231 61.996 6.83116 62.1387 6.72152C62.201 6.67366 63.9791 2.29975 63.9791 2.19447C63.9791 2.10954 63.5093 1.74925 62.8241 1.30864C62.75 1.26103 61.8726 1.92988 60.8153 2.83994ZM38.9413 4.6803C38.9413 4.72258 39.5018 5.39035 40.187 6.16436C40.8721 6.93849 41.5514 7.73528 41.6966 7.93518L41.9605 8.29862L41.5346 10.1764C41.3003 11.2092 41.0323 12.1125 40.939 12.1837C40.7217 12.3496 37.1511 12.7476 36.9499 12.6284C36.8666 12.5791 36.1239 11.7817 35.2996 10.8564L33.8007 9.17391L33.7243 9.52379C33.4848 10.6205 33.7454 12.1812 34.3616 13.3391C34.8164 14.1938 36.0038 15.3625 36.8574 15.7957C38.1446 16.449 40.095 16.6465 41.1796 16.2336C41.3632 16.1636 41.6114 16.1377 41.7314 16.1758C41.8513 16.2139 44.9874 19.6531 48.7006 23.8182L55.4517 31.3914L55.4418 31.7781C55.4362 31.9907 55.3411 32.4896 55.2301 32.8868C54.6629 34.9174 55.2426 37.066 56.771 38.5968C57.5834 39.4104 58.3961 39.8822 59.4666 40.1614C60.1423 40.3377 61.56 40.4123 61.56 40.2717C61.56 40.2329 60.917 39.4834 60.1311 38.6059C59.3452 37.7285 58.6608 36.9411 58.6101 36.8562C58.4996 36.6706 59.2351 33.1562 59.4447 32.8692L59.5919 32.6676L61.4916 32.4535C62.5364 32.3358 63.4555 32.2681 63.534 32.3029C63.6125 32.338 64.3298 33.1215 65.1282 34.0442C65.9265 34.967 66.6136 35.7256 66.6552 35.7302C66.7693 35.7428 66.882 35.0593 66.882 34.3557C66.882 33.5685 66.6145 32.5267 66.2037 31.7149C65.8251 30.9666 64.7178 29.7702 64.0299 29.3663C62.7245 28.5998 61.1739 28.3426 59.7058 28.6493L58.7589 28.847L58.5667 28.6886C58.3008 28.4695 45.3265 13.9373 45.0894 13.5929L44.8975 13.3144L45.1968 12.3814L45.4959 11.4485L45.4444 10.2216L45.393 8.99485L44.9526 8.06577C43.9596 5.97173 41.8862 4.60361 39.7055 4.60361C39.2852 4.60361 38.9413 4.63814 38.9413 4.6803ZM57.598 8.01901C57.3381 8.37264 55.6172 10.7543 53.7733 13.3115L50.4212 17.9608L51.015 18.642C51.3415 19.0166 51.665 19.3231 51.7337 19.3231C51.8508 19.3231 59.6264 8.64837 59.6232 8.49197C59.6219 8.42691 58.3674 7.50389 58.157 7.41327C58.1094 7.39268 57.8578 7.66526 57.598 8.01901ZM17.4717 13.0111C16.8056 13.2222 16.3275 13.4899 15.8976 13.8931C15.6971 14.081 14.3412 15.7886 12.8844 17.6876C11.4276 19.5866 10.0983 21.2903 9.93028 21.4734L9.62487 21.8066H5.35357H1.08227V22.3908C1.08227 23.2092 1.38381 24.0045 1.92956 24.6255C2.49213 25.2656 3.10682 25.5868 4.46902 25.9525L5.49714 26.2285L5.53488 26.5559L5.57262 26.8834L3.92847 28.8552L2.28445 30.827L2.04616 31.5994L1.808 32.372V42.8192V53.2665L1.97928 53.8363C2.21901 54.6345 2.66437 55.1661 3.40074 55.5337L4.03274 55.8491L7.12351 55.8464L10.2144 55.8438L10.6982 55.6189C11.2961 55.3411 11.8956 54.7222 12.1435 54.1266L12.3311 53.6762V51.337V48.9976L12.5195 48.7284L12.7077 48.4591H33.8612H55.0147L55.2029 48.7284L55.3912 48.9976V51.3975V53.7973L55.5543 54.1872C55.7955 54.7636 56.3239 55.3402 56.8882 55.6424L57.387 55.9097L60.1343 55.9481L62.8815 55.9866L63.642 55.7922C64.5364 55.5636 65.1332 55.1237 65.5515 54.3845L65.8539 53.8502L65.8873 45.2361L65.9205 36.622L64.5285 35.0597C63.7628 34.2004 63.0539 33.5019 62.953 33.5074C62.852 33.513 62.5427 33.5267 62.2656 33.5377L61.7616 33.5579L62.2615 34.0201C62.8722 34.5849 63.2474 35.3753 63.2497 36.102C63.2527 37.0271 63.0174 38.1917 62.6905 38.8688L62.3785 39.5156L62.7986 39.9591C63.0297 40.2031 63.251 40.4956 63.2905 40.6088C63.4124 40.9593 62.9999 41.3022 62.2995 41.4324C60.8211 41.7075 59.2063 41.484 57.8818 40.8211L57.167 40.4633H54.3025H51.4382L50.8692 40.2918C49.2549 39.8053 48.3773 38.1025 48.9111 36.4928C49.1472 35.7809 50.0228 34.88 50.6808 34.6721C51.0286 34.5621 53.4781 34.1637 53.8059 34.1637C53.8612 34.1637 53.9408 33.8721 53.9825 33.5156C54.0243 33.1593 54.1359 32.6481 54.2304 32.3798L54.4023 31.8918L52.6316 29.9472L50.861 28.0027L50.4653 28.5693C50.2477 28.881 47.7452 32.3704 44.904 36.3235L39.7384 43.5109L39.2015 43.8262C38.5694 44.1971 37.6006 44.3143 36.9483 44.0987C36.5396 43.9635 32.4919 41.1542 31.8235 40.5417C31.1605 39.9343 30.8265 38.7381 31.0686 37.8378C31.1596 37.4991 32.3229 35.7801 34.634 32.5692L38.0641 27.8034L24.1277 27.7428L10.1911 27.6823L9.99112 27.516C9.88105 27.4246 9.79106 27.2539 9.79106 27.1367C9.79106 26.8856 18.0181 16.5484 18.3667 16.3615C18.5271 16.2756 21.3319 16.2338 26.9445 16.2338H35.284L34.5244 15.4578C34.0262 14.9489 33.6086 14.3655 33.3108 13.7618L32.8568 12.8417L25.4062 12.8498L17.9555 12.8579L17.4717 13.0111ZM46.136 12.9662C46.069 13.075 47 14.1852 49.0608 16.4538L49.6459 17.0978L50.7603 15.5569C51.3733 14.7095 51.8451 13.9677 51.8085 13.9085C51.6698 13.6838 50.8064 13.2179 50.1868 13.0336L49.5415 12.8417H47.8773C46.8675 12.8417 46.1827 12.8906 46.136 12.9662ZM41.3257 17.3992C41.275 17.45 36.1866 17.4787 30.0178 17.4628L18.8022 17.4341L15.2373 21.9125C13.2765 24.3756 11.6526 26.4501 11.6286 26.5223L11.5848 26.6536L25.2898 26.6227L38.9948 26.5919L39.8752 25.3804C40.3594 24.7141 41.1502 23.6003 41.6326 22.9054C42.5753 21.547 43.18 21.0403 44.0304 20.8964L44.5044 20.8162L43.2045 19.3606C42.4897 18.5601 41.7951 17.7704 41.6614 17.606C41.5275 17.4415 41.3764 17.3485 41.3257 17.3992ZM53.542 18.8981L52.4942 20.3459L55.7228 23.9536L58.9512 27.5611L59.3182 27.5377C60.5379 27.4598 61.8025 27.4612 62.1951 27.5408L62.6487 27.6327L62.3463 27.1863C62.1799 26.9407 62.0438 26.7034 62.0438 26.6588C62.0438 26.3875 62.4703 26.1505 63.3638 25.9249C64.6536 25.5994 65.1514 25.3429 65.7226 24.7095C66.2907 24.0799 66.5016 23.5848 66.5987 22.6539L66.6746 21.9277L62.5146 21.9193C60.2267 21.9145 58.2627 21.8737 58.1505 21.8284C57.9975 21.7667 56.1912 19.5466 54.611 17.478C54.5994 17.4627 54.1183 18.1017 53.542 18.8981ZM43.84 22.1651C43.5769 22.2748 43.1616 22.708 42.6595 23.3963L42.3393 23.8351L45.0812 25.8192C46.5894 26.9105 48.1051 28.0068 48.4497 28.2553L49.0763 28.7072L49.5861 27.9235L50.0959 27.1396L48.1741 24.988C47.1172 23.8046 45.9891 22.6591 45.6675 22.4426L45.0827 22.0489L44.5823 22.0565C44.3071 22.0608 43.9731 22.1096 43.84 22.1651ZM40.5471 26.3112C34.4446 34.7413 32.4126 37.5662 32.3003 37.7765C32.0932 38.1642 32.1428 39.0296 32.3939 39.4112C32.7023 39.8796 36.7178 42.8513 37.2782 43.0257L37.7318 43.167L38.1887 43.0299C38.4401 42.9544 38.8126 42.714 39.0164 42.4957C39.3083 42.1832 47.9558 30.2743 48.2887 29.7264C48.34 29.6421 47.1509 28.705 45.1722 27.2708C43.4126 25.9954 41.895 24.9219 41.8001 24.8853C41.6831 24.8404 41.2787 25.3006 40.5471 26.3112ZM37.6777 32.6001C35.5121 35.6048 33.7402 38.1562 33.7402 38.2698C33.7402 38.5549 33.9786 38.7673 34.2986 38.7673C34.632 38.7673 34.4865 38.9553 38.8622 32.8733C40.835 30.1313 42.449 27.7844 42.449 27.6579C42.449 27.3501 42.2191 27.1371 41.8869 27.1371H41.6152L37.6777 32.6001ZM43.1353 28.8634C41.4784 31.0846 35.5546 39.435 35.5546 39.5495C35.5546 39.6317 35.6633 39.7975 35.7962 39.918L36.038 40.1371L36.2751 40.0277C36.5887 39.8829 44.2634 29.2729 44.2634 28.9842C44.2634 28.3704 43.5593 28.295 43.1353 28.8634ZM45.207 29.8326C44.8637 30.1046 37.3689 40.608 37.3689 40.8171C37.3689 41.3379 38.0257 41.4769 38.4166 41.0388C39.0011 40.384 46.0777 30.4138 46.0777 30.2453C46.0777 30.0781 45.6496 29.6812 45.4692 29.6812C45.4301 29.6812 45.3122 29.7494 45.207 29.8326ZM7.29115 33.3107C6.22953 33.564 5.37703 34.3908 5.06243 35.472L4.91087 35.9931L5.05844 37.1028C5.1396 37.713 5.30482 38.4365 5.42578 38.7103C5.72418 39.386 6.43031 40.0447 7.10162 40.2739L7.65692 40.4633H12.4293H17.2018L17.6996 40.316C18.362 40.12 19.4005 39.0893 19.577 38.4529C19.7722 37.7485 19.7325 36.8305 19.4831 36.2837C19.192 35.6454 18.2763 34.8156 17.6944 34.6624C17.2686 34.5505 7.87355 33.177 7.73482 33.2065C7.70156 33.2135 7.50186 33.2604 7.29115 33.3107ZM60.1906 34.3757C60.1614 34.4257 60.0419 34.9142 59.925 35.4614L59.7126 36.4563L60.4523 37.2919C60.8592 37.7516 61.2807 38.2014 61.3891 38.2914L61.5861 38.4553L61.7358 38.2502C61.9284 37.9864 62.1854 36.1344 62.0843 35.7386C61.9526 35.2226 61.5451 34.751 61.0276 34.5156C60.4893 34.2707 60.2731 34.2346 60.1906 34.3757ZM6.91014 34.6519C6.66654 34.8007 6.41507 35.1093 6.27029 35.437L6.03177 35.977L6.17558 37.0063C6.33669 38.16 6.58066 38.6569 7.15919 39.0102L7.55338 39.251H12.3311H17.1089L17.4971 39.0138C17.7106 38.8834 18.0024 38.547 18.1454 38.2661L18.4055 37.7554L18.3467 37.2323C18.2777 36.619 17.8166 35.9535 17.3279 35.762C16.8736 35.584 8.6848 34.4036 7.91625 34.4055C7.52411 34.4063 7.17032 34.4931 6.91014 34.6519ZM52.4286 35.5154C50.9464 35.7777 50.5043 35.9814 50.089 36.5932L49.8058 37.0106L49.8601 37.595C49.9178 38.2153 50.1754 38.6548 50.7202 39.0626L51.0539 39.3124L53.4168 39.3522L55.7795 39.3919L55.3449 38.8218C54.7665 38.0629 54.3208 37.0953 54.0837 36.0835C53.9768 35.6272 53.8598 35.2598 53.8238 35.2669C53.7879 35.2742 53.16 35.3859 52.4286 35.5154Z" fill="#CEFDFF"/>
</svg>
