<svg width="76" height="76" viewBox="0 0 76 76" fill="none" xmlns="http://www.w3.org/2000/svg">
<path fill-rule="evenodd" clip-rule="evenodd" d="M64.2073 5.90844L61.9972 7.817L61.7252 9.07136L61.4532 10.3258L59.6744 12.8266C58.696 14.202 57.6046 15.7241 57.249 16.2091L56.6024 17.0909L56.0517 16.7113C55.7487 16.5026 55.1923 16.22 54.8153 16.0835L54.1297 15.8352L52.3456 15.7782L50.5615 15.7213V14.6714C50.5615 12.7509 49.949 11.1717 48.685 9.83326C47.4774 8.55455 46.1114 7.85855 44.3827 7.64122C42.9008 7.45477 41.2479 7.80198 41.2479 8.29953C41.2479 8.44103 42.9601 10.47 44.4871 12.1383L44.7838 12.4625L44.579 13.4104C44.4663 13.9316 44.3242 14.554 44.263 14.7934L44.1518 15.2286L42.75 15.3787C41.979 15.4612 41.3355 15.5106 41.3201 15.4886C41.3047 15.4665 40.5141 14.5626 39.5631 13.4798L37.8342 11.5112H37.5601C37.2113 11.5112 37.0984 11.6594 36.8227 12.4803L36.5989 13.1467L36.595 14.4487L36.5912 15.7507L29.1934 15.7511L21.7956 15.7513L21.0894 15.9722C20.3113 16.2154 19.6114 16.6215 19.0465 17.1577C18.8435 17.3504 17.4359 19.1298 15.9185 21.1121L13.1596 24.7163H8.82717H4.49479L4.30949 24.9019C4.05197 25.1598 3.95243 25.8046 4.02113 26.7677C4.15261 28.608 5.36434 30.133 7.18399 30.7483C7.5644 30.877 7.88662 31.0112 7.90017 31.0467C7.91372 31.0823 7.40909 31.7296 6.77879 32.4855C5.48844 34.0326 5.0484 34.7733 4.84447 35.7407L4.70404 36.407L4.7419 47.2497L4.77988 58.0925L5.1921 58.8539C5.67628 59.7483 6.20897 60.2508 7.13295 60.6849L7.80377 61H11.0091H14.2144L14.8797 60.7685L15.5449 60.5369L16.2802 59.7993C16.7807 59.2971 17.0852 58.8683 17.2341 58.4559L17.4527 57.8502L17.5104 55.7604L17.5681 53.6706H37.8749H58.1817L58.1836 55.4575C58.1858 57.5588 58.3512 58.4073 58.9234 59.254C59.365 59.9075 60.2554 60.5785 61.0241 60.8372L61.508 61H64.7159H67.9239L68.7326 60.6012C69.6122 60.1675 70.2266 59.5476 70.6697 58.6468L70.9425 58.0925L70.976 49.8603L71.0095 41.6282L71.2437 41.4098C71.5961 41.0809 71.8653 40.055 71.9364 38.7693L72 37.6184L71.8019 36.8309C71.4659 35.4961 70.9427 34.5939 69.8078 33.3923C68.7032 32.2227 67.7372 31.0921 67.7372 30.9688C67.7372 30.9281 67.844 30.8948 67.9745 30.8948C69.0089 30.8948 70.6955 29.6248 71.3005 28.3904L71.6466 27.6844L71.7029 26.8158C71.7689 25.8 71.6721 25.1615 71.4129 24.9019L71.2276 24.7163H66.8988H62.5701L60.9806 22.6605C60.1065 21.5298 59.3912 20.5461 59.3912 20.4744C59.3912 20.4028 60.6137 18.6451 62.1079 16.5686L64.8246 12.793L65.9463 12.1216L67.068 11.4501L67.5931 10.1783C68.9612 6.86393 69.3052 5.94672 69.2419 5.78136C69.1407 5.51738 66.9407 4 66.659 4C66.5212 4 65.4674 4.82029 64.2073 5.90844ZM64.8153 6.83994L62.9378 8.45569L62.7798 9.38029C62.693 9.88887 62.6435 10.3231 62.6697 10.3452C62.9177 10.5546 64.4604 11.6323 64.512 11.6323C64.5651 11.6323 65.996 10.8312 66.1387 10.7215C66.201 10.6737 67.9791 6.29975 67.9791 6.19447C67.9791 6.10954 67.5093 5.74925 66.8241 5.30864C66.75 5.26103 65.8726 5.92988 64.8153 6.83994ZM42.9413 8.6803C42.9413 8.72258 43.5018 9.39035 44.187 10.1644C44.8721 10.9385 45.5514 11.7353 45.6966 11.9352L45.9605 12.2986L45.5346 14.1764C45.3003 15.2092 45.0323 16.1125 44.939 16.1837C44.7217 16.3496 41.1511 16.7476 40.9499 16.6284C40.8666 16.5791 40.1239 15.7817 39.2996 14.8564L37.8007 13.1739L37.7243 13.5238C37.4848 14.6205 37.7454 16.1812 38.3616 17.3391C38.8164 18.1938 40.0038 19.3625 40.8574 19.7957C42.1446 20.449 44.095 20.6465 45.1796 20.2336C45.3632 20.1636 45.6114 20.1377 45.7314 20.1758C45.8513 20.2139 48.9874 23.6531 52.7006 27.8182L59.4517 35.3914L59.4418 35.7781C59.4362 35.9907 59.3411 36.4896 59.2301 36.8868C58.6629 38.9174 59.2426 41.066 60.771 42.5968C61.5834 43.4104 62.3961 43.8822 63.4666 44.1614C64.1423 44.3377 65.56 44.4123 65.56 44.2717C65.56 44.2329 64.917 43.4834 64.1311 42.6059C63.3452 41.7285 62.6608 40.9411 62.6101 40.8562C62.4996 40.6706 63.2351 37.1562 63.4447 36.8692L63.5919 36.6676L65.4916 36.4535C66.5364 36.3358 67.4555 36.2681 67.534 36.3029C67.6125 36.338 68.3298 37.1215 69.1282 38.0442C69.9265 38.967 70.6136 39.7256 70.6552 39.7302C70.7693 39.7428 70.882 39.0593 70.882 38.3557C70.882 37.5685 70.6145 36.5267 70.2037 35.7149C69.8251 34.9666 68.7178 33.7702 68.0299 33.3663C66.7245 32.5998 65.1739 32.3426 63.7058 32.6493L62.7589 32.847L62.5667 32.6886C62.3008 32.4695 49.3265 17.9373 49.0894 17.5929L48.8975 17.3144L49.1968 16.3814L49.4959 15.4485L49.4444 14.2216L49.393 12.9949L48.9526 12.0658C47.9596 9.97173 45.8862 8.60361 43.7055 8.60361C43.2852 8.60361 42.9413 8.63814 42.9413 8.6803ZM61.598 12.019C61.3381 12.3726 59.6172 14.7543 57.7733 17.3115L54.4212 21.9608L55.015 22.642C55.3415 23.0166 55.665 23.3231 55.7337 23.3231C55.8508 23.3231 63.6264 12.6484 63.6232 12.492C63.6219 12.4269 62.3674 11.5039 62.157 11.4133C62.1094 11.3927 61.8578 11.6653 61.598 12.019ZM21.4717 17.0111C20.8056 17.2222 20.3275 17.4899 19.8976 17.8931C19.6971 18.081 18.3412 19.7886 16.8844 21.6876C15.4276 23.5866 14.0983 25.2903 13.9303 25.4734L13.6249 25.8066H9.35357H5.08227V26.3908C5.08227 27.2092 5.38381 28.0045 5.92956 28.6255C6.49213 29.2656 7.10682 29.5868 8.46902 29.9525L9.49714 30.2285L9.53488 30.5559L9.57262 30.8834L7.92847 32.8552L6.28445 34.827L6.04616 35.5994L5.808 36.372V46.8192V57.2665L5.97928 57.8363C6.21901 58.6345 6.66437 59.1661 7.40074 59.5337L8.03274 59.8491L11.1235 59.8464L14.2144 59.8438L14.6982 59.6189C15.2961 59.3411 15.8956 58.7222 16.1435 58.1266L16.3311 57.6762V55.337V52.9976L16.5195 52.7284L16.7077 52.4591H37.8612H59.0147L59.2029 52.7284L59.3912 52.9976V55.3975V57.7973L59.5543 58.1872C59.7955 58.7636 60.3239 59.3402 60.8882 59.6424L61.387 59.9097L64.1343 59.9481L66.8815 59.9866L67.642 59.7922C68.5364 59.5636 69.1332 59.1237 69.5515 58.3845L69.8539 57.8502L69.8873 49.2361L69.9205 40.622L68.5285 39.0597C67.7628 38.2004 67.0539 37.5019 66.953 37.5074C66.852 37.513 66.5427 37.5267 66.2656 37.5377L65.7616 37.5579L66.2615 38.0201C66.8722 38.5849 67.2474 39.3753 67.2497 40.102C67.2527 41.0271 67.0174 42.1917 66.6905 42.8688L66.3785 43.5156L66.7986 43.9591C67.0297 44.2031 67.251 44.4956 67.2905 44.6088C67.4124 44.9593 66.9999 45.3022 66.2995 45.4324C64.8211 45.7075 63.2063 45.484 61.8818 44.8211L61.167 44.4633H58.3025H55.4382L54.8692 44.2918C53.2549 43.8053 52.3773 42.1025 52.9111 40.4928C53.1472 39.7809 54.0228 38.88 54.6808 38.6721C55.0286 38.5621 57.4781 38.1637 57.8059 38.1637C57.8612 38.1637 57.9408 37.8721 57.9825 37.5156C58.0243 37.1593 58.1359 36.6481 58.2304 36.3798L58.4023 35.8918L56.6316 33.9472L54.861 32.0027L54.4653 32.5693C54.2477 32.881 51.7452 36.3704 48.904 40.3235L43.7384 47.5109L43.2015 47.8262C42.5694 48.1971 41.6006 48.3143 40.9483 48.0987C40.5396 47.9635 36.4919 45.1542 35.8235 44.5417C35.1605 43.9343 34.8265 42.7381 35.0686 41.8378C35.1596 41.4991 36.3229 39.7801 38.634 36.5692L42.0641 31.8034L28.1277 31.7428L14.1911 31.6823L13.9911 31.516C13.8811 31.4246 13.7911 31.2539 13.7911 31.1367C13.7911 30.8856 22.0181 20.5484 22.3667 20.3615C22.5271 20.2756 25.3319 20.2338 30.9445 20.2338H39.284L38.5244 19.4578C38.0262 18.9489 37.6086 18.3655 37.3108 17.7618L36.8568 16.8417L29.4062 16.8498L21.9555 16.8579L21.4717 17.0111ZM50.136 16.9662C50.069 17.075 51 18.1852 53.0608 20.4538L53.6459 21.0978L54.7603 19.5569C55.3733 18.7095 55.8451 17.9677 55.8085 17.9085C55.6698 17.6838 54.8064 17.2179 54.1868 17.0336L53.5415 16.8417H51.8773C50.8675 16.8417 50.1827 16.8906 50.136 16.9662ZM45.3257 21.3992C45.275 21.45 40.1866 21.4787 34.0178 21.4628L22.8022 21.4341L19.2373 25.9125C17.2765 28.3756 15.6526 30.4501 15.6286 30.5223L15.5848 30.6536L29.2898 30.6227L42.9948 30.5919L43.8752 29.3804C44.3594 28.7141 45.1502 27.6003 45.6326 26.9054C46.5753 25.547 47.18 25.0403 48.0304 24.8964L48.5044 24.8162L47.2045 23.3606C46.4897 22.5601 45.7951 21.7704 45.6614 21.606C45.5275 21.4415 45.3764 21.3485 45.3257 21.3992ZM57.542 22.8981L56.4942 24.3459L59.7228 27.9536L62.9512 31.5611L63.3182 31.5377C64.5379 31.4598 65.8025 31.4612 66.1951 31.5408L66.6487 31.6327L66.3463 31.1863C66.1799 30.9407 66.0438 30.7034 66.0438 30.6588C66.0438 30.3875 66.4703 30.1505 67.3638 29.9249C68.6536 29.5994 69.1514 29.3429 69.7226 28.7095C70.2907 28.0799 70.5016 27.5848 70.5987 26.6539L70.6746 25.9277L66.5146 25.9193C64.2267 25.9145 62.2627 25.8737 62.1505 25.8284C61.9975 25.7667 60.1912 23.5466 58.611 21.478C58.5994 21.4627 58.1183 22.1017 57.542 22.8981ZM47.84 26.1651C47.5769 26.2748 47.1616 26.708 46.6595 27.3963L46.3393 27.8351L49.0812 29.8192C50.5894 30.9105 52.1051 32.0068 52.4497 32.2553L53.0763 32.7072L53.5861 31.9235L54.0959 31.1396L52.1741 28.988C51.1172 27.8046 49.9891 26.6591 49.6675 26.4426L49.0827 26.0489L48.5823 26.0565C48.3071 26.0608 47.9731 26.1096 47.84 26.1651ZM44.5471 30.3112C38.4446 38.7413 36.4126 41.5662 36.3003 41.7765C36.0932 42.1642 36.1428 43.0296 36.3939 43.4112C36.7023 43.8796 40.7178 46.8513 41.2782 47.0257L41.7318 47.167L42.1887 47.0299C42.4401 46.9544 42.8126 46.714 43.0164 46.4957C43.3083 46.1832 51.9558 34.2743 52.2887 33.7264C52.34 33.6421 51.1509 32.705 49.1722 31.2708C47.4126 29.9954 45.895 28.9219 45.8001 28.8853C45.6831 28.8404 45.2787 29.3006 44.5471 30.3112ZM41.6777 36.6001C39.5121 39.6048 37.7402 42.1562 37.7402 42.2698C37.7402 42.5549 37.9786 42.7673 38.2986 42.7673C38.632 42.7673 38.4865 42.9553 42.8622 36.8733C44.835 34.1313 46.449 31.7844 46.449 31.6579C46.449 31.3501 46.2191 31.1371 45.8869 31.1371H45.6152L41.6777 36.6001ZM47.1353 32.8634C45.4784 35.0846 39.5546 43.435 39.5546 43.5495C39.5546 43.6317 39.6633 43.7975 39.7962 43.918L40.038 44.1371L40.2751 44.0277C40.5887 43.8829 48.2634 33.2729 48.2634 32.9842C48.2634 32.3704 47.5593 32.295 47.1353 32.8634ZM49.207 33.8326C48.8637 34.1046 41.3689 44.608 41.3689 44.8171C41.3689 45.3379 42.0257 45.4769 42.4166 45.0388C43.0011 44.384 50.0777 34.4138 50.0777 34.2453C50.0777 34.0781 49.6496 33.6812 49.4692 33.6812C49.4301 33.6812 49.3122 33.7494 49.207 33.8326ZM11.2912 37.3107C10.2295 37.564 9.37703 38.3908 9.06243 39.472L8.91087 39.9931L9.05844 41.1028C9.1396 41.713 9.30482 42.4365 9.42578 42.7103C9.72418 43.386 10.4303 44.0447 11.1016 44.2739L11.6569 44.4633H16.4293H21.2018L21.6996 44.316C22.362 44.12 23.4005 43.0893 23.577 42.4529C23.7722 41.7485 23.7325 40.8305 23.4831 40.2837C23.192 39.6454 22.2763 38.8156 21.6944 38.6624C21.2686 38.5505 11.8736 37.177 11.7348 37.2065C11.7016 37.2135 11.5019 37.2604 11.2912 37.3107ZM64.1906 38.3757C64.1614 38.4257 64.0419 38.9142 63.925 39.4614L63.7126 40.4563L64.4523 41.2919C64.8592 41.7516 65.2807 42.2014 65.3891 42.2914L65.5861 42.4553L65.7358 42.2502C65.9284 41.9864 66.1854 40.1344 66.0843 39.7386C65.9526 39.2226 65.5451 38.751 65.0276 38.5156C64.4893 38.2707 64.2731 38.2346 64.1906 38.3757ZM10.9101 38.6519C10.6665 38.8007 10.4151 39.1093 10.2703 39.437L10.0318 39.977L10.1756 41.0063C10.3367 42.16 10.5807 42.6569 11.1592 43.0102L11.5534 43.251H16.3311H21.1089L21.4971 43.0138C21.7106 42.8834 22.0024 42.547 22.1454 42.2661L22.4055 41.7554L22.3467 41.2323C22.2777 40.619 21.8166 39.9535 21.3279 39.762C20.8736 39.584 12.6848 38.4036 11.9163 38.4055C11.5241 38.4063 11.1703 38.4931 10.9101 38.6519ZM56.4286 39.5154C54.9464 39.7777 54.5043 39.9814 54.089 40.5932L53.8058 41.0106L53.8601 41.595C53.9178 42.2153 54.1754 42.6548 54.7202 43.0626L55.0539 43.3124L57.4168 43.3522L59.7795 43.3919L59.3449 42.8218C58.7665 42.0629 58.3208 41.0953 58.0837 40.0835C57.9768 39.6272 57.8598 39.2598 57.8238 39.2669C57.7879 39.2742 57.16 39.3859 56.4286 39.5154Z" fill="#CEFDFF"/>
</svg>
