<svg width="44" height="44" viewBox="0 0 44 44" fill="none" xmlns="http://www.w3.org/2000/svg">
<mask id="path-1-inside-1_524_1317" fill="white">
<path fill-rule="evenodd" clip-rule="evenodd" d="M5.49946 0.535813C4.85174 0.766762 4.5278 1.0527 4.24968 1.63885L4.03423 2.0928V4.4378V6.78281H2.69338H1.3524L1.04767 6.99634L0.742798 7.20973V25.3522V43.4946L0.993631 43.7215L1.24433 43.9485H21.9459H42.6475L42.9522 43.735L43.2571 43.5216V25.4264V7.33138L42.9828 7.05709L42.7085 6.78281H41.3371H39.9657V4.4378V2.0928L39.7425 1.62267C39.4604 1.02815 38.9866 0.653756 38.2732 0.461619L37.7136 0.311035L37.2125 0.461071C36.5084 0.671996 35.9962 1.11414 35.7 1.76626L35.446 2.32566L35.443 4.55424L35.4399 6.78281H21.9999H8.55994L8.55692 4.55424L8.55391 2.32566L8.30198 1.77709C8.00232 1.12457 7.69649 0.832178 7.01654 0.548018C6.40872 0.294029 6.1823 0.292248 5.49946 0.535813ZM5.55281 2.06989L5.26851 2.43126V4.60703V6.78281H6.22851H7.18851V4.51995V2.25709L6.91423 1.98281C6.51953 1.58811 5.90047 1.62774 5.55281 2.06989ZM37.0857 1.98281L36.8114 2.25709V4.51995V6.78281H37.7714H38.7314V4.60703V2.43126L38.4471 2.06989C38.0994 1.62774 37.4804 1.58811 37.0857 1.98281ZM2.11423 11.7199V15.2857H21.9999H41.8857V11.7199V8.15424H21.9999H2.11423V11.7199ZM2.11423 29.5485V42.5771H21.9999H41.8857V29.5485V16.5199H21.9999H2.11423V29.5485ZM12.2902 19.4274L12.1257 19.5919V22.0969V24.6018L12.3909 24.7437C12.5433 24.8252 13.6271 24.8857 14.9371 24.8857C16.2471 24.8857 17.3309 24.8252 17.4833 24.7437L17.7485 24.6018V22.0969V19.5919L17.5839 19.4274L17.4194 19.2628H14.9371H12.4548L12.2902 19.4274ZM19.2619 19.528C19.1801 19.681 19.1199 20.7762 19.1199 22.1125V24.4317L19.3708 24.6587L19.6215 24.8857H22.0238H24.426L24.653 24.6348L24.8799 24.3841V22.0888C24.8799 20.7688 24.8196 19.6807 24.738 19.528L24.5961 19.2628H21.9999H19.4038L19.2619 19.528ZM26.4159 19.4274L26.2514 19.5919V22.0969V24.6018L26.5166 24.7437C26.669 24.8252 27.7528 24.8857 29.0628 24.8857C30.3728 24.8857 31.4566 24.8252 31.609 24.7437L31.8742 24.6018V22.0969V19.5919L31.7097 19.4274L31.5451 19.2628H29.0628H26.5805L26.4159 19.4274ZM33.3876 19.528C33.3059 19.681 33.2457 20.7762 33.2457 22.1125V24.4317L33.4965 24.6587L33.7472 24.8857H36.1495H38.5517L38.7787 24.6348L39.0057 24.3841V22.0888C39.0057 20.7688 38.9453 19.6807 38.8637 19.528L38.7218 19.2628H36.1257H33.5295L33.3876 19.528ZM13.3897 22.0399L13.4285 23.5828H14.9371H16.4457L16.4845 22.0399L16.5233 20.4971H14.9371H13.3509L13.3897 22.0399ZM20.4914 22.0742V23.6514H21.9999H23.5085V22.0742V20.4971H21.9999H20.4914V22.0742ZM27.5154 22.0399L27.5542 23.5828H29.0628H30.5714L30.6102 22.0399L30.649 20.4971H29.0628H27.4766L27.5154 22.0399ZM34.6171 22.0742V23.6514H36.1257H37.6342V22.0742V20.4971H36.1257H34.6171V22.0742ZM29.8008 28.2407C29.0178 29.2563 28.3128 30.0894 28.2342 30.0922C28.1556 30.0949 27.8188 29.8194 27.4857 29.4799C26.8789 28.8618 26.4513 28.7177 26.1417 29.0274C25.7952 29.3738 25.9871 29.771 26.9747 30.7519L27.9721 31.7428H28.3354H28.6988L30.4237 29.5242C31.394 28.2764 32.1485 27.1784 32.1485 27.0145C32.1485 26.641 31.8993 26.3942 31.5219 26.3942H31.2246L29.8008 28.2407ZM5.26851 26.9428L4.99423 27.2171V29.5485V31.8799L5.26851 32.1542L5.5428 32.4285H7.87423H10.2057L10.4799 32.1542L10.7542 31.8799V29.5485V27.2171L10.4799 26.9428L10.2057 26.6685H7.87423H5.5428L5.26851 26.9428ZM12.3411 26.884L12.1257 27.0996V29.622V32.1446L12.3909 32.2866C12.5439 32.3685 13.6426 32.4285 14.9869 32.4285H17.3175L17.5331 32.2131L17.7485 31.9975V29.5485V27.0996L17.5331 26.884L17.3175 26.6685H14.9371H12.5567L12.3411 26.884ZM19.3942 26.9428L19.1199 27.2171V29.5485V31.8799L19.3942 32.1542L19.6685 32.4285H21.9999H24.3314L24.6057 32.1542L24.8799 31.8799V29.5485V27.2171L24.6057 26.9428L24.3314 26.6685H21.9999H19.6685L19.3942 26.9428ZM33.5199 26.9428L33.2457 27.2171V29.5485V31.8799L33.5199 32.1542L33.7942 32.4285H36.1257H38.4571L38.7314 32.1542L39.0057 31.8799V29.5485V27.2171L38.7314 26.9428L38.4571 26.6685H36.1257H33.7942L33.5199 26.9428ZM6.36565 29.5485V31.0571H7.87423H9.3828V29.5485V28.0399H7.87423H6.36565V29.5485ZM13.3599 29.5485V31.0571H14.9371H16.5142V29.5485V28.0399H14.9371H13.3599V29.5485ZM20.4914 29.5485V31.0571H21.9999H23.5085V29.5485V28.0399H21.9999H20.4914V29.5485ZM34.6171 29.5485V31.0571H36.1257H37.6342V29.5485V28.0399H36.1257H34.6171V29.5485ZM5.2212 34.4622L4.99423 34.7129V37.0417V39.3704L5.18883 39.6366L5.38358 39.9028H7.87423H10.3649L10.5596 39.6366L10.7542 39.3704V37.0179V34.6653L10.5034 34.4383L10.2527 34.2114H7.85036H5.44817L5.2212 34.4622ZM12.3657 34.3595L12.1257 34.4992V37.0218V39.5444L12.4305 39.7578L12.7353 39.9714H14.9371H17.1389L17.4436 39.7578L17.7485 39.5444V37.0198V34.4953L17.4833 34.3533C17.1367 34.1679 12.6855 34.1732 12.3657 34.3595ZM19.3469 34.4622L19.1199 34.7129V37.0417V39.3704L19.3145 39.6366L19.5093 39.9028H21.9999H24.4906L24.6853 39.6366L24.8799 39.3704V37.0956V34.821L24.6664 34.5162L24.453 34.2114H22.0134H19.5739L19.3469 34.4622ZM6.36565 37.0914V38.5999H7.87423H9.3828V37.0914V35.5828H7.87423H6.36565V37.0914ZM13.3599 37.0914V38.5999H14.9371H16.5142V37.0914V35.5828H14.9371H13.3599V37.0914ZM20.4914 37.0914V38.5999H21.9999H23.5085V37.0914V35.5828H21.9999H20.4914V37.0914Z"/>
</mask>
<path fill-rule="evenodd" clip-rule="evenodd" d="M5.49946 0.535813C4.85174 0.766762 4.5278 1.0527 4.24968 1.63885L4.03423 2.0928V4.4378V6.78281H2.69338H1.3524L1.04767 6.99634L0.742798 7.20973V25.3522V43.4946L0.993631 43.7215L1.24433 43.9485H21.9459H42.6475L42.9522 43.735L43.2571 43.5216V25.4264V7.33138L42.9828 7.05709L42.7085 6.78281H41.3371H39.9657V4.4378V2.0928L39.7425 1.62267C39.4604 1.02815 38.9866 0.653756 38.2732 0.461619L37.7136 0.311035L37.2125 0.461071C36.5084 0.671996 35.9962 1.11414 35.7 1.76626L35.446 2.32566L35.443 4.55424L35.4399 6.78281H21.9999H8.55994L8.55692 4.55424L8.55391 2.32566L8.30198 1.77709C8.00232 1.12457 7.69649 0.832178 7.01654 0.548018C6.40872 0.294029 6.1823 0.292248 5.49946 0.535813ZM5.55281 2.06989L5.26851 2.43126V4.60703V6.78281H6.22851H7.18851V4.51995V2.25709L6.91423 1.98281C6.51953 1.58811 5.90047 1.62774 5.55281 2.06989ZM37.0857 1.98281L36.8114 2.25709V4.51995V6.78281H37.7714H38.7314V4.60703V2.43126L38.4471 2.06989C38.0994 1.62774 37.4804 1.58811 37.0857 1.98281ZM2.11423 11.7199V15.2857H21.9999H41.8857V11.7199V8.15424H21.9999H2.11423V11.7199ZM2.11423 29.5485V42.5771H21.9999H41.8857V29.5485V16.5199H21.9999H2.11423V29.5485ZM12.2902 19.4274L12.1257 19.5919V22.0969V24.6018L12.3909 24.7437C12.5433 24.8252 13.6271 24.8857 14.9371 24.8857C16.2471 24.8857 17.3309 24.8252 17.4833 24.7437L17.7485 24.6018V22.0969V19.5919L17.5839 19.4274L17.4194 19.2628H14.9371H12.4548L12.2902 19.4274ZM19.2619 19.528C19.1801 19.681 19.1199 20.7762 19.1199 22.1125V24.4317L19.3708 24.6587L19.6215 24.8857H22.0238H24.426L24.653 24.6348L24.8799 24.3841V22.0888C24.8799 20.7688 24.8196 19.6807 24.738 19.528L24.5961 19.2628H21.9999H19.4038L19.2619 19.528ZM26.4159 19.4274L26.2514 19.5919V22.0969V24.6018L26.5166 24.7437C26.669 24.8252 27.7528 24.8857 29.0628 24.8857C30.3728 24.8857 31.4566 24.8252 31.609 24.7437L31.8742 24.6018V22.0969V19.5919L31.7097 19.4274L31.5451 19.2628H29.0628H26.5805L26.4159 19.4274ZM33.3876 19.528C33.3059 19.681 33.2457 20.7762 33.2457 22.1125V24.4317L33.4965 24.6587L33.7472 24.8857H36.1495H38.5517L38.7787 24.6348L39.0057 24.3841V22.0888C39.0057 20.7688 38.9453 19.6807 38.8637 19.528L38.7218 19.2628H36.1257H33.5295L33.3876 19.528ZM13.3897 22.0399L13.4285 23.5828H14.9371H16.4457L16.4845 22.0399L16.5233 20.4971H14.9371H13.3509L13.3897 22.0399ZM20.4914 22.0742V23.6514H21.9999H23.5085V22.0742V20.4971H21.9999H20.4914V22.0742ZM27.5154 22.0399L27.5542 23.5828H29.0628H30.5714L30.6102 22.0399L30.649 20.4971H29.0628H27.4766L27.5154 22.0399ZM34.6171 22.0742V23.6514H36.1257H37.6342V22.0742V20.4971H36.1257H34.6171V22.0742ZM29.8008 28.2407C29.0178 29.2563 28.3128 30.0894 28.2342 30.0922C28.1556 30.0949 27.8188 29.8194 27.4857 29.4799C26.8789 28.8618 26.4513 28.7177 26.1417 29.0274C25.7952 29.3738 25.9871 29.771 26.9747 30.7519L27.9721 31.7428H28.3354H28.6988L30.4237 29.5242C31.394 28.2764 32.1485 27.1784 32.1485 27.0145C32.1485 26.641 31.8993 26.3942 31.5219 26.3942H31.2246L29.8008 28.2407ZM5.26851 26.9428L4.99423 27.2171V29.5485V31.8799L5.26851 32.1542L5.5428 32.4285H7.87423H10.2057L10.4799 32.1542L10.7542 31.8799V29.5485V27.2171L10.4799 26.9428L10.2057 26.6685H7.87423H5.5428L5.26851 26.9428ZM12.3411 26.884L12.1257 27.0996V29.622V32.1446L12.3909 32.2866C12.5439 32.3685 13.6426 32.4285 14.9869 32.4285H17.3175L17.5331 32.2131L17.7485 31.9975V29.5485V27.0996L17.5331 26.884L17.3175 26.6685H14.9371H12.5567L12.3411 26.884ZM19.3942 26.9428L19.1199 27.2171V29.5485V31.8799L19.3942 32.1542L19.6685 32.4285H21.9999H24.3314L24.6057 32.1542L24.8799 31.8799V29.5485V27.2171L24.6057 26.9428L24.3314 26.6685H21.9999H19.6685L19.3942 26.9428ZM33.5199 26.9428L33.2457 27.2171V29.5485V31.8799L33.5199 32.1542L33.7942 32.4285H36.1257H38.4571L38.7314 32.1542L39.0057 31.8799V29.5485V27.2171L38.7314 26.9428L38.4571 26.6685H36.1257H33.7942L33.5199 26.9428ZM6.36565 29.5485V31.0571H7.87423H9.3828V29.5485V28.0399H7.87423H6.36565V29.5485ZM13.3599 29.5485V31.0571H14.9371H16.5142V29.5485V28.0399H14.9371H13.3599V29.5485ZM20.4914 29.5485V31.0571H21.9999H23.5085V29.5485V28.0399H21.9999H20.4914V29.5485ZM34.6171 29.5485V31.0571H36.1257H37.6342V29.5485V28.0399H36.1257H34.6171V29.5485ZM5.2212 34.4622L4.99423 34.7129V37.0417V39.3704L5.18883 39.6366L5.38358 39.9028H7.87423H10.3649L10.5596 39.6366L10.7542 39.3704V37.0179V34.6653L10.5034 34.4383L10.2527 34.2114H7.85036H5.44817L5.2212 34.4622ZM12.3657 34.3595L12.1257 34.4992V37.0218V39.5444L12.4305 39.7578L12.7353 39.9714H14.9371H17.1389L17.4436 39.7578L17.7485 39.5444V37.0198V34.4953L17.4833 34.3533C17.1367 34.1679 12.6855 34.1732 12.3657 34.3595ZM19.3469 34.4622L19.1199 34.7129V37.0417V39.3704L19.3145 39.6366L19.5093 39.9028H21.9999H24.4906L24.6853 39.6366L24.8799 39.3704V37.0956V34.821L24.6664 34.5162L24.453 34.2114H22.0134H19.5739L19.3469 34.4622ZM6.36565 37.0914V38.5999H7.87423H9.3828V37.0914V35.5828H7.87423H6.36565V37.0914ZM13.3599 37.0914V38.5999H14.9371H16.5142V37.0914V35.5828H14.9371H13.3599V37.0914ZM20.4914 37.0914V38.5999H21.9999H23.5085V37.0914V35.5828H21.9999H20.4914V37.0914Z" fill="white" stroke="#DC323F" stroke-width="0.4" mask="url(#path-1-inside-1_524_1317)"/>
</svg>
