<svg width="44" height="44" viewBox="0 0 44 44" fill="none" xmlns="http://www.w3.org/2000/svg">
<mask id="path-1-inside-1_1059_3705" fill="white">
<path fill-rule="evenodd" clip-rule="evenodd" d="M5.49952 0.535813C4.8518 0.766762 4.52786 1.0527 4.24974 1.63885L4.03429 2.0928V4.4378V6.78281H2.69344H1.35246L1.04773 6.99634L0.742859 7.20973V25.3522V43.4946L0.993692 43.7215L1.24439 43.9485H21.946H42.6475L42.9523 43.735L43.2571 43.5216V25.4264V7.33138L42.9829 7.05709L42.7086 6.78281H41.3371H39.9657V4.4378V2.0928L39.7426 1.62267C39.4605 1.02815 38.9867 0.653756 38.2732 0.461619L37.7137 0.311035L37.2126 0.461071C36.5085 0.671996 35.9963 1.11414 35.7 1.76626L35.446 2.32566L35.443 4.55424L35.44 6.78281H22H8.56L8.55698 4.55424L8.55397 2.32566L8.30204 1.77709C8.00238 1.12457 7.69655 0.832178 7.0166 0.548018C6.40878 0.294029 6.18236 0.292248 5.49952 0.535813ZM5.55287 2.06989L5.26857 2.43126V4.60703V6.78281H6.22857H7.18857V4.51995V2.25709L6.91429 1.98281C6.51959 1.58811 5.90053 1.62774 5.55287 2.06989ZM37.0857 1.98281L36.8114 2.25709V4.51995V6.78281H37.7714H38.7314V4.60703V2.43126L38.4471 2.06989C38.0995 1.62774 37.4804 1.58811 37.0857 1.98281ZM2.11429 11.7199V15.2857H22H41.8857V11.7199V8.15424H22H2.11429V11.7199ZM2.11429 29.5485V42.5771H22H41.8857V29.5485V16.5199H22H2.11429V29.5485ZM12.2903 19.4274L12.1257 19.5919V22.0969V24.6018L12.3909 24.7437C12.5433 24.8252 13.6272 24.8857 14.9371 24.8857C16.2471 24.8857 17.331 24.8252 17.4833 24.7437L17.7486 24.6018V22.0969V19.5919L17.584 19.4274L17.4194 19.2628H14.9371H12.4549L12.2903 19.4274ZM19.2619 19.528C19.1802 19.681 19.12 20.7762 19.12 22.1125V24.4317L19.3708 24.6587L19.6215 24.8857H22.0239H24.4261L24.653 24.6348L24.88 24.3841V22.0888C24.88 20.7688 24.8197 19.6807 24.7381 19.528L24.5961 19.2628H22H19.4039L19.2619 19.528ZM26.416 19.4274L26.2514 19.5919V22.0969V24.6018L26.5167 24.7437C26.669 24.8252 27.7529 24.8857 29.0629 24.8857C30.3728 24.8857 31.4567 24.8252 31.6091 24.7437L31.8743 24.6018V22.0969V19.5919L31.7097 19.4274L31.5451 19.2628H29.0629H26.5806L26.416 19.4274ZM33.3877 19.528C33.3059 19.681 33.2457 20.7762 33.2457 22.1125V24.4317L33.4966 24.6587L33.7472 24.8857H36.1496H38.5518L38.7787 24.6348L39.0057 24.3841V22.0888C39.0057 20.7688 38.9454 19.6807 38.8638 19.528L38.7218 19.2628H36.1257H33.5296L33.3877 19.528ZM13.3898 22.0399L13.4286 23.5828H14.9371H16.4457L16.4845 22.0399L16.5233 20.4971H14.9371H13.3509L13.3898 22.0399ZM20.4914 22.0742V23.6514H22H23.5086V22.0742V20.4971H22H20.4914V22.0742ZM27.5155 22.0399L27.5543 23.5828H29.0629H30.5714L30.6102 22.0399L30.6491 20.4971H29.0629H27.4767L27.5155 22.0399ZM34.6171 22.0742V23.6514H36.1257H37.6343V22.0742V20.4971H36.1257H34.6171V22.0742ZM29.8008 28.2407C29.0179 29.2563 28.3128 30.0894 28.2342 30.0922C28.1557 30.0949 27.8188 29.8194 27.4857 29.4799C26.879 28.8618 26.4514 28.7177 26.1417 29.0274C25.7953 29.3738 25.9872 29.771 26.9747 30.7519L27.9722 31.7428H28.3355H28.6989L30.4237 29.5242C31.394 28.2764 32.1486 27.1784 32.1486 27.0145C32.1486 26.641 31.8994 26.3942 31.522 26.3942H31.2246L29.8008 28.2407ZM5.26857 26.9428L4.99429 27.2171V29.5485V31.8799L5.26857 32.1542L5.54286 32.4285H7.87429H10.2057L10.48 32.1542L10.7543 31.8799V29.5485V27.2171L10.48 26.9428L10.2057 26.6685H7.87429H5.54286L5.26857 26.9428ZM12.3412 26.884L12.1257 27.0996V29.622V32.1446L12.3909 32.2866C12.544 32.3685 13.6427 32.4285 14.9869 32.4285H17.3175L17.5331 32.2131L17.7486 31.9975V29.5485V27.0996L17.5331 26.884L17.3175 26.6685H14.9371H12.5568L12.3412 26.884ZM19.3943 26.9428L19.12 27.2171V29.5485V31.8799L19.3943 32.1542L19.6686 32.4285H22H24.3314L24.6057 32.1542L24.88 31.8799V29.5485V27.2171L24.6057 26.9428L24.3314 26.6685H22H19.6686L19.3943 26.9428ZM33.52 26.9428L33.2457 27.2171V29.5485V31.8799L33.52 32.1542L33.7943 32.4285H36.1257H38.4571L38.7314 32.1542L39.0057 31.8799V29.5485V27.2171L38.7314 26.9428L38.4571 26.6685H36.1257H33.7943L33.52 26.9428ZM6.36572 29.5485V31.0571H7.87429H9.38286V29.5485V28.0399H7.87429H6.36572V29.5485ZM13.36 29.5485V31.0571H14.9371H16.5143V29.5485V28.0399H14.9371H13.36V29.5485ZM20.4914 29.5485V31.0571H22H23.5086V29.5485V28.0399H22H20.4914V29.5485ZM34.6171 29.5485V31.0571H36.1257H37.6343V29.5485V28.0399H36.1257H34.6171V29.5485ZM5.22126 34.4622L4.99429 34.7129V37.0417V39.3704L5.18889 39.6366L5.38364 39.9028H7.87429H10.3649L10.5597 39.6366L10.7543 39.3704V37.0179V34.6653L10.5035 34.4383L10.2528 34.2114H7.85042H5.44823L5.22126 34.4622ZM12.3657 34.3595L12.1257 34.4992V37.0218V39.5444L12.4306 39.7578L12.7353 39.9714H14.9371H17.139L17.4437 39.7578L17.7486 39.5444V37.0198V34.4953L17.4833 34.3533C17.1368 34.1679 12.6855 34.1732 12.3657 34.3595ZM19.347 34.4622L19.12 34.7129V37.0417V39.3704L19.3146 39.6366L19.5093 39.9028H22H24.4907L24.6854 39.6366L24.88 39.3704V37.0956V34.821L24.6665 34.5162L24.4531 34.2114H22.0134H19.5739L19.347 34.4622ZM6.36572 37.0914V38.5999H7.87429H9.38286V37.0914V35.5828H7.87429H6.36572V37.0914ZM13.36 37.0914V38.5999H14.9371H16.5143V37.0914V35.5828H14.9371H13.36V37.0914ZM20.4914 37.0914V38.5999H22H23.5086V37.0914V35.5828H22H20.4914V37.0914Z"/>
</mask>
<path fill-rule="evenodd" clip-rule="evenodd" d="M5.49952 0.535813C4.8518 0.766762 4.52786 1.0527 4.24974 1.63885L4.03429 2.0928V4.4378V6.78281H2.69344H1.35246L1.04773 6.99634L0.742859 7.20973V25.3522V43.4946L0.993692 43.7215L1.24439 43.9485H21.946H42.6475L42.9523 43.735L43.2571 43.5216V25.4264V7.33138L42.9829 7.05709L42.7086 6.78281H41.3371H39.9657V4.4378V2.0928L39.7426 1.62267C39.4605 1.02815 38.9867 0.653756 38.2732 0.461619L37.7137 0.311035L37.2126 0.461071C36.5085 0.671996 35.9963 1.11414 35.7 1.76626L35.446 2.32566L35.443 4.55424L35.44 6.78281H22H8.56L8.55698 4.55424L8.55397 2.32566L8.30204 1.77709C8.00238 1.12457 7.69655 0.832178 7.0166 0.548018C6.40878 0.294029 6.18236 0.292248 5.49952 0.535813ZM5.55287 2.06989L5.26857 2.43126V4.60703V6.78281H6.22857H7.18857V4.51995V2.25709L6.91429 1.98281C6.51959 1.58811 5.90053 1.62774 5.55287 2.06989ZM37.0857 1.98281L36.8114 2.25709V4.51995V6.78281H37.7714H38.7314V4.60703V2.43126L38.4471 2.06989C38.0995 1.62774 37.4804 1.58811 37.0857 1.98281ZM2.11429 11.7199V15.2857H22H41.8857V11.7199V8.15424H22H2.11429V11.7199ZM2.11429 29.5485V42.5771H22H41.8857V29.5485V16.5199H22H2.11429V29.5485ZM12.2903 19.4274L12.1257 19.5919V22.0969V24.6018L12.3909 24.7437C12.5433 24.8252 13.6272 24.8857 14.9371 24.8857C16.2471 24.8857 17.331 24.8252 17.4833 24.7437L17.7486 24.6018V22.0969V19.5919L17.584 19.4274L17.4194 19.2628H14.9371H12.4549L12.2903 19.4274ZM19.2619 19.528C19.1802 19.681 19.12 20.7762 19.12 22.1125V24.4317L19.3708 24.6587L19.6215 24.8857H22.0239H24.4261L24.653 24.6348L24.88 24.3841V22.0888C24.88 20.7688 24.8197 19.6807 24.7381 19.528L24.5961 19.2628H22H19.4039L19.2619 19.528ZM26.416 19.4274L26.2514 19.5919V22.0969V24.6018L26.5167 24.7437C26.669 24.8252 27.7529 24.8857 29.0629 24.8857C30.3728 24.8857 31.4567 24.8252 31.6091 24.7437L31.8743 24.6018V22.0969V19.5919L31.7097 19.4274L31.5451 19.2628H29.0629H26.5806L26.416 19.4274ZM33.3877 19.528C33.3059 19.681 33.2457 20.7762 33.2457 22.1125V24.4317L33.4966 24.6587L33.7472 24.8857H36.1496H38.5518L38.7787 24.6348L39.0057 24.3841V22.0888C39.0057 20.7688 38.9454 19.6807 38.8638 19.528L38.7218 19.2628H36.1257H33.5296L33.3877 19.528ZM13.3898 22.0399L13.4286 23.5828H14.9371H16.4457L16.4845 22.0399L16.5233 20.4971H14.9371H13.3509L13.3898 22.0399ZM20.4914 22.0742V23.6514H22H23.5086V22.0742V20.4971H22H20.4914V22.0742ZM27.5155 22.0399L27.5543 23.5828H29.0629H30.5714L30.6102 22.0399L30.6491 20.4971H29.0629H27.4767L27.5155 22.0399ZM34.6171 22.0742V23.6514H36.1257H37.6343V22.0742V20.4971H36.1257H34.6171V22.0742ZM29.8008 28.2407C29.0179 29.2563 28.3128 30.0894 28.2342 30.0922C28.1557 30.0949 27.8188 29.8194 27.4857 29.4799C26.879 28.8618 26.4514 28.7177 26.1417 29.0274C25.7953 29.3738 25.9872 29.771 26.9747 30.7519L27.9722 31.7428H28.3355H28.6989L30.4237 29.5242C31.394 28.2764 32.1486 27.1784 32.1486 27.0145C32.1486 26.641 31.8994 26.3942 31.522 26.3942H31.2246L29.8008 28.2407ZM5.26857 26.9428L4.99429 27.2171V29.5485V31.8799L5.26857 32.1542L5.54286 32.4285H7.87429H10.2057L10.48 32.1542L10.7543 31.8799V29.5485V27.2171L10.48 26.9428L10.2057 26.6685H7.87429H5.54286L5.26857 26.9428ZM12.3412 26.884L12.1257 27.0996V29.622V32.1446L12.3909 32.2866C12.544 32.3685 13.6427 32.4285 14.9869 32.4285H17.3175L17.5331 32.2131L17.7486 31.9975V29.5485V27.0996L17.5331 26.884L17.3175 26.6685H14.9371H12.5568L12.3412 26.884ZM19.3943 26.9428L19.12 27.2171V29.5485V31.8799L19.3943 32.1542L19.6686 32.4285H22H24.3314L24.6057 32.1542L24.88 31.8799V29.5485V27.2171L24.6057 26.9428L24.3314 26.6685H22H19.6686L19.3943 26.9428ZM33.52 26.9428L33.2457 27.2171V29.5485V31.8799L33.52 32.1542L33.7943 32.4285H36.1257H38.4571L38.7314 32.1542L39.0057 31.8799V29.5485V27.2171L38.7314 26.9428L38.4571 26.6685H36.1257H33.7943L33.52 26.9428ZM6.36572 29.5485V31.0571H7.87429H9.38286V29.5485V28.0399H7.87429H6.36572V29.5485ZM13.36 29.5485V31.0571H14.9371H16.5143V29.5485V28.0399H14.9371H13.36V29.5485ZM20.4914 29.5485V31.0571H22H23.5086V29.5485V28.0399H22H20.4914V29.5485ZM34.6171 29.5485V31.0571H36.1257H37.6343V29.5485V28.0399H36.1257H34.6171V29.5485ZM5.22126 34.4622L4.99429 34.7129V37.0417V39.3704L5.18889 39.6366L5.38364 39.9028H7.87429H10.3649L10.5597 39.6366L10.7543 39.3704V37.0179V34.6653L10.5035 34.4383L10.2528 34.2114H7.85042H5.44823L5.22126 34.4622ZM12.3657 34.3595L12.1257 34.4992V37.0218V39.5444L12.4306 39.7578L12.7353 39.9714H14.9371H17.139L17.4437 39.7578L17.7486 39.5444V37.0198V34.4953L17.4833 34.3533C17.1368 34.1679 12.6855 34.1732 12.3657 34.3595ZM19.347 34.4622L19.12 34.7129V37.0417V39.3704L19.3146 39.6366L19.5093 39.9028H22H24.4907L24.6854 39.6366L24.88 39.3704V37.0956V34.821L24.6665 34.5162L24.4531 34.2114H22.0134H19.5739L19.347 34.4622ZM6.36572 37.0914V38.5999H7.87429H9.38286V37.0914V35.5828H7.87429H6.36572V37.0914ZM13.36 37.0914V38.5999H14.9371H16.5143V37.0914V35.5828H14.9371H13.36V37.0914ZM20.4914 37.0914V38.5999H22H23.5086V37.0914V35.5828H22H20.4914V37.0914Z" fill="white" stroke="#DC323F" stroke-width="0.4" mask="url(#path-1-inside-1_1059_3705)"/>
</svg>
