<svg width="40" height="40" viewBox="0 0 40 40" fill="none" xmlns="http://www.w3.org/2000/svg">
<path d="M23.8489 38.8281H4.37468C3.56609 38.8281 2.9082 38.1706 2.9082 37.3625V12.7399C2.9082 11.9313 3.56609 11.2735 4.37468 11.2735H17.8361L17.8364 22.6836C17.8364 22.7957 17.7453 22.8868 17.6332 22.8868H14.6059C14.2822 22.8868 14.02 23.1491 14.02 23.4727C14.02 23.7963 14.2822 24.0586 14.6059 24.0586H17.6332C18.3914 24.0586 19.0082 23.4418 19.0082 22.6836V22.0803C19.3057 22.2345 19.6429 22.3221 20.0004 22.3221C20.3579 22.3221 20.6952 22.2345 20.9926 22.0803V22.6836C20.9926 23.4418 21.6095 24.0586 22.3676 24.0586H30.4176C31.1758 24.0586 31.7927 23.4418 31.7927 22.6836V14.7915C31.7927 14.5263 31.896 14.2769 32.0831 14.0899C32.2709 13.9025 32.5205 13.7993 32.7856 13.7993C33.3327 13.7993 33.7777 14.2443 33.7777 14.7915V35.3102C33.7777 35.5753 33.6745 35.8246 33.4868 36.0123C33.2998 36.1994 33.0508 36.3023 32.7856 36.3023C32.2381 36.3023 31.7926 35.8573 31.7926 35.3102V27.4188C31.7926 26.6602 31.1757 26.043 30.4175 26.043H22.3676C21.6095 26.043 20.9926 26.6602 20.9926 27.4188V35.3102C20.9926 35.5753 20.8893 35.8246 20.7017 36.0122C20.5146 36.1993 20.2656 36.3023 20.0004 36.3023C19.4532 36.3023 19.0082 35.8572 19.0082 35.3101V27.4188C19.0082 26.6602 18.3913 26.043 17.6332 26.043H9.58326C8.82506 26.043 8.20819 26.6602 8.20819 27.4188V35.3102C8.20819 35.5753 8.10491 35.8246 7.9178 36.0117C7.72999 36.1991 7.48038 36.3023 7.21522 36.3023C6.66819 36.3023 6.22312 35.8573 6.22312 35.3102V14.7915C6.22312 14.5263 6.3264 14.2769 6.51405 14.0893C6.70108 13.9023 6.95015 13.7993 7.2153 13.7993C7.7628 13.7993 8.20827 14.2443 8.20827 14.7915V22.6836C8.20827 23.4418 8.82514 24.0586 9.58334 24.0586H11.8716C12.1953 24.0586 12.4576 23.7963 12.4576 23.4727C12.4576 23.1491 12.1953 22.8868 11.8716 22.8868H9.58334C9.47131 22.8868 9.38014 22.7956 9.38014 22.6836V14.7915C9.38014 13.5982 8.40897 12.6274 7.2153 12.6274C6.6371 12.6274 6.09382 12.8523 5.68538 13.2608C5.27655 13.6697 5.05132 14.2133 5.05132 14.7915V35.3102C5.05132 36.5034 6.0221 37.4742 7.2153 37.4742C7.79303 37.4742 8.33647 37.2495 8.746 36.8409C9.15491 36.432 9.38014 35.8884 9.38014 35.3102V27.4188C9.38014 27.3064 9.47131 27.2149 9.58334 27.2149H17.6332C17.7453 27.2149 17.8364 27.3064 17.8364 27.4188V35.3102C17.8364 36.5034 18.8072 37.4742 20.0004 37.4742C20.5786 37.4742 21.1219 37.2493 21.5303 36.8409C21.9393 36.432 22.1645 35.8884 22.1645 35.3102V27.4188C22.1645 27.3064 22.2556 27.2149 22.3676 27.2149H30.4176C30.5296 27.2149 30.6208 27.3064 30.6208 27.4188V35.3102C30.6208 36.5034 31.592 37.4742 32.7856 37.4742C33.3638 37.4742 33.9072 37.2493 34.3155 36.8409C34.7244 36.432 34.9496 35.8884 34.9496 35.3102V14.7915C34.9496 13.5982 33.9788 12.6274 32.7856 12.6274C32.208 12.6274 31.6645 12.8521 31.2549 13.2608C30.846 13.6697 30.6208 14.2133 30.6208 14.7915V22.6836C30.6208 22.7957 30.5296 22.8868 30.4176 22.8868H22.3676C22.2556 22.8868 22.1645 22.7956 22.1645 22.6836L22.1647 11.2735H27.3145C27.6381 11.2735 27.9004 11.0112 27.9004 10.6876C27.9004 10.364 27.6381 10.1016 27.3145 10.1016H22.2992L22.6868 8.23842C22.7293 8.03412 22.8365 7.84834 22.9971 7.70116C23.9106 6.86311 24.4346 5.67233 24.4346 4.43421C24.4346 2.04859 22.5396 0.0979686 20.1755 0.00546874C20.11 0.0021875 20.0443 0 19.9779 0C19.8325 0 19.6897 0.00851561 19.5497 0.0238281L19.5457 0.0242187C19.5029 0.0289062 19.4604 0.0344531 19.418 0.0404687C17.2474 0.326718 15.5662 2.18726 15.5662 4.43413C15.5662 5.67225 16.0902 6.86303 17.0037 7.70108C17.1643 7.84827 17.2715 8.03405 17.314 8.23834L17.7016 10.1015H4.37468C2.91992 10.1015 1.73633 11.285 1.73633 12.7397V37.3623C1.73633 38.8166 2.91984 39.9998 4.37468 39.9998H23.8489C24.1725 39.9998 24.4348 39.7375 24.4348 39.4139C24.4348 39.0903 24.1725 38.8281 23.8489 38.8281ZM20.0004 21.1503C19.4547 21.1503 19.0107 20.7075 19.0082 20.1625V20.1579L19.008 20.1534V11.2736H20.9929V20.1533L20.9926 20.1579V20.1624C20.9902 20.7075 20.5461 21.1503 20.0004 21.1503ZM21.9575 2.51015C21.9575 3.23554 21.0509 3.84827 19.9779 3.84827C18.9049 3.84827 17.9983 3.23546 17.9983 2.51015C17.9983 1.88023 18.6822 1.33539 19.5649 1.20289C19.7075 1.18375 19.8527 1.17297 20.0004 1.17297C20.0407 1.17297 20.0806 1.17453 20.1205 1.17601C21.13 1.22734 21.9575 1.81718 21.9575 2.51015ZM18.4614 7.99975C18.3686 7.55366 18.1385 7.15178 17.796 6.83756C17.1237 6.22085 16.7381 5.34491 16.7381 4.43421C16.7381 4.01421 16.8188 3.61288 16.9641 3.24382C17.3591 4.27101 18.5606 5.02015 19.9779 5.02015C21.4225 5.02015 22.6424 4.24163 23.0131 3.1839C23.1737 3.56921 23.2628 3.9914 23.2628 4.43421C23.2628 5.34491 22.8771 6.22092 22.2049 6.83756C21.8624 7.1517 21.6323 7.55366 21.5395 7.99967L21.1022 10.1015H18.8986L18.4614 7.99975Z" fill="#E8092E"/>
<path d="M35.6269 10.1016H30.0495C29.7259 10.1016 29.4636 10.3639 29.4636 10.6875C29.4636 11.0111 29.7259 11.2734 30.0495 11.2734H35.6269C36.4354 11.2734 37.0933 11.9312 37.0933 12.7398V37.3624C37.0933 38.1706 36.4354 38.8281 35.6269 38.8281H26.5839C26.2602 38.8281 25.998 39.0904 25.998 39.414C25.998 39.7376 26.2602 39.9999 26.5839 39.9999H35.6269C37.0816 39.9999 38.2652 38.8167 38.2652 37.3624V12.7398C38.2651 11.2851 37.0816 10.1016 35.6269 10.1016Z" fill="#E8092E"/>
<path d="M12.4253 21.5341C12.7489 21.5341 13.0112 21.2718 13.0112 20.9482C13.0112 20.6246 12.7489 20.3623 12.4253 20.3623H11.3203C10.9967 20.3623 10.7344 20.6246 10.7344 20.9482C10.7344 21.2718 10.9967 21.5341 11.3203 21.5341H12.4253Z" fill="#E8092E"/>
<path d="M11.3203 28.5674C10.9967 28.5674 10.7344 28.8298 10.7344 29.1534C10.7344 29.477 10.9967 29.7393 11.3203 29.7393H12.4253C12.7489 29.7393 13.0112 29.477 13.0112 29.1534C13.0112 28.8298 12.7489 28.5674 12.4253 28.5674H11.3203Z" fill="#E8092E"/>
<path d="M26.9902 20.9482C26.9902 21.2718 27.2525 21.5341 27.5761 21.5341H28.6811C29.0047 21.5341 29.267 21.2718 29.267 20.9482C29.267 20.6246 29.0047 20.3623 28.6811 20.3623H27.5761C27.2525 20.3623 26.9902 20.6246 26.9902 20.9482Z" fill="#E8092E"/>
<path d="M27.5761 28.5674C27.2525 28.5674 26.9902 28.8298 26.9902 29.1534C26.9902 29.477 27.2525 29.7393 27.5761 29.7393H28.6811C29.0047 29.7393 29.267 29.477 29.267 29.1534C29.267 28.8298 29.0047 28.5674 28.6811 28.5674H27.5761Z" fill="#E8092E"/>
</svg>
