<svg width="43" height="43" viewBox="0 0 43 43" fill="none" xmlns="http://www.w3.org/2000/svg">
<path d="M40.4746 24.7715C40.6482 24.7715 40.8145 24.7026 40.9372 24.5798C41.06 24.4571 41.1289 24.2908 41.1289 24.1172V18.8828C41.1289 18.7092 41.06 18.5429 40.9372 18.4202C40.8145 18.2974 40.6482 18.2285 40.4746 18.2285H36.8544C36.4567 16.3521 35.7166 14.565 34.671 12.9569L37.228 10.394C37.3504 10.2713 37.4192 10.105 37.4192 9.93171C37.4192 9.75837 37.3504 9.59211 37.228 9.46944L33.5312 5.77266C33.4085 5.65021 33.2423 5.58143 33.0689 5.58143C32.8957 5.58143 32.7294 5.65021 32.6067 5.77266L30.0431 8.329C28.435 7.28348 26.6479 6.54332 24.7715 6.14562V2.52539C24.7715 2.35186 24.7026 2.18544 24.5798 2.06273C24.4571 1.94003 24.2908 1.87109 24.1172 1.87109H18.8828C18.7092 1.87109 18.5429 1.94003 18.4202 2.06273C18.2974 2.18544 18.2285 2.35186 18.2285 2.52539V6.14562C16.3521 6.54332 14.565 7.28348 12.9569 8.329L10.394 5.77201C10.2713 5.64955 10.105 5.58077 9.93171 5.58077C9.75837 5.58077 9.59211 5.64955 9.46944 5.77201L5.77266 9.46879C5.65021 9.59146 5.58143 9.75772 5.58143 9.93105C5.58143 10.1044 5.65021 10.2706 5.77266 10.3933L8.32966 12.9561C7.28382 14.5645 6.54344 16.3518 6.14562 18.2285H2.52539C2.35186 18.2285 2.18544 18.2974 2.06273 18.4202C1.94003 18.5429 1.87109 18.7092 1.87109 18.8828V24.1172C1.87109 24.2908 1.94003 24.4571 2.06273 24.5798C2.18544 24.7026 2.35186 24.7715 2.52539 24.7715H6.14562C6.54332 26.6479 7.28348 28.435 8.329 30.0431L5.77201 32.606C5.64955 32.7287 5.58077 32.8949 5.58077 33.0683C5.58077 33.2416 5.64955 33.4079 5.77201 33.5306L9.46879 37.2273C9.59146 37.3498 9.75772 37.4186 9.93105 37.4186C10.1044 37.4186 10.2706 37.3498 10.3933 37.2273L12.9561 34.6703C14.5645 35.7161 16.3518 36.4566 18.2285 36.8544V40.4746C18.2285 40.6482 18.2974 40.8145 18.4202 40.9372C18.5429 41.06 18.7092 41.1289 18.8828 41.1289H24.1172C24.2908 41.1289 24.4571 41.06 24.5798 40.9372C24.7026 40.8145 24.7715 40.6482 24.7715 40.4746V36.8544C26.6474 36.4551 28.4338 35.7138 30.0412 34.6677L35.3796 40.0061C35.9941 40.6152 36.8247 40.9561 37.6899 40.9542C38.5551 40.9523 39.3843 40.6078 39.996 39.996C40.6078 39.3843 40.9523 38.5551 40.9542 37.6899C40.9561 36.8247 40.6152 35.9941 40.0061 35.3796L34.6677 30.0412C35.7138 28.4338 36.4551 26.6474 36.8544 24.7715H40.4746ZM39.081 39.081C38.8986 39.2633 38.6823 39.4078 38.4441 39.5066C38.2059 39.6052 37.9507 39.656 37.6929 39.656C37.4351 39.656 37.1798 39.6052 36.9416 39.5066C36.7034 39.4078 36.4871 39.2633 36.3048 39.081L23.7763 26.5532C23.472 26.2493 23.1105 26.0086 22.7128 25.8451C22.315 25.6815 21.8888 25.5984 21.4588 25.6005C21.3223 25.6004 21.186 25.6086 21.0505 25.6247C20.2017 25.7267 19.3407 25.6189 18.5431 25.3109C17.7455 25.0031 17.0356 24.5042 16.4755 23.8582C15.9154 23.2123 15.5222 22.4388 15.3303 21.6056C15.1386 20.7724 15.1539 19.905 15.3752 19.0791L18.2612 21.9659C18.3839 22.0886 18.5503 22.1575 18.7238 22.1575H21.5C21.6736 22.1575 21.8399 22.0887 21.9626 21.966C22.0854 21.8433 22.1543 21.6768 22.1543 21.5032V18.7238C22.1543 18.5503 22.0853 18.3839 21.9626 18.2612L19.0791 15.3752C19.9048 15.1545 20.772 15.1395 21.6048 15.3315C22.4376 15.5236 23.2107 15.9169 23.8563 16.4769C24.5019 17.037 25.0005 17.7466 25.3083 18.5439C25.6161 19.3413 25.7238 20.2019 25.6221 21.0505C25.5589 21.5455 25.6098 22.0485 25.7707 22.5209C25.9316 22.9933 26.1984 23.4227 26.5505 23.7763L39.081 36.3048C39.2633 36.4871 39.4078 36.7034 39.5066 36.9416C39.6052 37.1798 39.656 37.4351 39.656 37.6929C39.656 37.9507 39.6052 38.2059 39.5066 38.4441C39.4078 38.6823 39.2633 38.8986 39.081 39.081ZM27.4783 22.8544C27.2666 22.6405 27.1067 22.3811 27.0107 22.0958C26.9149 21.8106 26.8854 21.5072 26.9248 21.2089C27.065 20.0458 26.8902 18.8665 26.4186 17.7942C25.947 16.7219 25.1961 15.7959 24.2442 15.1132C23.2922 14.4305 22.1744 14.016 21.0075 13.9131C19.8406 13.8103 18.6675 14.0228 17.6109 14.5284C17.5165 14.5738 17.4345 14.641 17.3715 14.7244C17.3085 14.808 17.2665 14.9054 17.249 15.0085C17.2315 15.1116 17.2388 15.2174 17.2706 15.3171C17.3023 15.4167 17.3576 15.5073 17.4315 15.5813L20.8457 18.9947V20.8457H18.9947L15.5813 17.4315C15.5073 17.3576 15.4167 17.3023 15.3171 17.2706C15.2174 17.2388 15.1116 17.2315 15.0085 17.249C14.9054 17.2665 14.808 17.3085 14.7244 17.3715C14.641 17.4345 14.5738 17.5165 14.5284 17.6109C14.0229 18.6672 13.8104 19.84 13.9132 21.0065C14.0159 22.1731 14.43 23.2907 15.1124 24.2424C15.7947 25.1941 16.7202 25.9451 17.7921 26.4169C18.864 26.8887 20.0429 27.0638 21.2056 26.9242C21.504 26.8849 21.8074 26.9144 22.0925 27.0105C22.3778 27.1065 22.6372 27.2666 22.8511 27.4783L26.2168 30.8434C23.9933 31.9667 21.4423 32.2607 19.0216 31.6729C16.6008 31.0851 14.4689 29.6539 13.0081 27.6359C11.5474 25.6181 10.8535 23.1458 11.0511 20.6625C11.2487 18.1793 12.3248 15.8477 14.0862 14.0862C15.8477 12.3248 18.1793 11.2487 20.6625 11.0511C23.1458 10.8535 25.6181 11.5474 27.6359 13.0081C29.6539 14.4689 31.0851 16.6008 31.6729 19.0216C32.2607 21.4423 31.9667 23.9933 30.8434 26.2168L27.4783 22.8544ZM35.6688 24.0099C35.3533 25.8157 34.6926 27.5439 33.7229 29.0997L31.8097 27.1865C33.1824 24.6991 33.6108 21.7998 33.0163 19.0217C32.4216 16.2436 30.844 13.7736 28.5734 12.0661C26.303 10.3585 23.4922 9.52805 20.6582 9.72757C17.8242 9.92708 15.1576 11.1431 13.1488 13.152C11.1398 15.1609 9.92381 17.8276 9.7243 20.6615C9.52479 23.4954 10.3552 26.3062 12.0628 28.5767C13.7704 30.8472 16.2404 32.4249 19.0185 33.0195C21.7965 33.6141 24.6958 33.1856 27.1833 31.813L29.0964 33.7262C27.5406 34.6959 25.8125 35.3565 24.0066 35.6721C23.855 35.698 23.7176 35.7765 23.6181 35.8938C23.5187 36.011 23.4637 36.1596 23.4629 36.3133V39.8203H19.5371V36.3133C19.537 36.159 19.4824 36.0097 19.3829 35.8918C19.2835 35.7738 19.1455 35.6949 18.9934 35.6688C16.9293 35.3075 14.9704 34.4957 13.2559 33.2911C13.1298 33.2025 12.9767 33.1612 12.8232 33.1745C12.6698 33.1878 12.526 33.2548 12.417 33.3637L9.93596 35.8402L7.16305 33.0673L9.63957 30.5862C9.74845 30.4773 9.81543 30.3335 9.82871 30.1801C9.842 30.0266 9.80073 29.8734 9.71219 29.7474C8.50716 28.0319 7.69531 26.0718 7.33447 24.0066C7.3083 23.854 7.22885 23.7156 7.11024 23.616C6.99164 23.5165 6.84157 23.4623 6.68672 23.4629H3.17969V19.5371H6.68672C6.84101 19.537 6.9903 19.4824 7.10822 19.3829C7.22615 19.2835 7.30513 19.1455 7.33121 18.9934C7.69249 16.9293 8.50433 14.9704 9.70892 13.2559C9.79747 13.1298 9.83872 12.9767 9.82544 12.8232C9.81215 12.6698 9.74517 12.526 9.63629 12.417L7.15978 9.93596L9.93268 7.16305L12.4138 9.63957C12.5227 9.74845 12.6665 9.81543 12.8199 9.82871C12.9734 9.842 13.1266 9.80073 13.2526 9.71219C14.9681 8.50716 16.9282 7.69531 18.9934 7.33447C19.146 7.3083 19.2844 7.22885 19.384 7.11024C19.4835 6.99164 19.5377 6.84157 19.5371 6.68672V3.17969H23.4629V6.68672C23.463 6.84101 23.5176 6.9903 23.6171 7.10822C23.7165 7.22615 23.8545 7.30513 24.0066 7.33121C26.0718 7.69203 28.0319 8.50388 29.7474 9.70892C29.8734 9.79747 30.0266 9.83872 30.1801 9.82544C30.3335 9.81215 30.4773 9.74517 30.5862 9.63629L33.0673 7.15978L35.8402 9.93268L33.3637 12.4138C33.2548 12.5227 33.1878 12.6665 33.1745 12.8199C33.1612 12.9734 33.2025 13.1266 33.2911 13.2526C34.4961 14.9681 35.308 16.9282 35.6688 18.9934C35.6949 19.1455 35.7738 19.2835 35.8918 19.3829C36.0097 19.4824 36.159 19.537 36.3133 19.5371H39.8203V23.4629H36.3133C36.159 23.463 36.0097 23.5176 35.8918 23.6171C35.7738 23.7165 35.6949 23.8545 35.6688 24.0066V24.0099Z" fill="#3F662B"/>
<path d="M25.664 24.7393C25.6036 24.6768 25.5314 24.627 25.4516 24.5928C25.3718 24.5584 25.2859 24.5404 25.199 24.5396C25.1122 24.5388 25.026 24.5554 24.9456 24.5884C24.8652 24.6212 24.7921 24.6698 24.7307 24.7313C24.6692 24.7927 24.6206 24.8657 24.5878 24.9462C24.5549 25.0266 24.5383 25.1127 24.5391 25.1996C24.5398 25.2864 24.5578 25.3724 24.5922 25.4521C24.6264 25.532 24.6763 25.6041 24.7387 25.6645L25.2013 26.1272C25.3248 26.2463 25.4901 26.3122 25.6617 26.3108C25.8331 26.3092 25.9973 26.2404 26.1186 26.1191C26.2398 25.9979 26.3087 25.8337 26.3102 25.6621C26.3117 25.4907 26.2457 25.3254 26.1266 25.2019L25.664 24.7393ZM34.917 35.8428C35.0404 35.9619 35.2057 36.0279 35.3773 36.0264C35.5488 36.0249 35.7129 35.9561 35.8342 35.8348C35.9556 35.7135 36.0244 35.5494 36.0258 35.3779C36.0273 35.2063 35.9613 35.041 35.8422 34.9176L27.9776 27.0523C27.8548 26.9295 27.6883 26.8605 27.5146 26.8605C27.3411 26.8605 27.1745 26.9295 27.0517 27.0523C26.9289 27.1751 26.86 27.3415 26.86 27.5152C26.86 27.6888 26.9289 27.8553 27.0517 27.9781L34.917 35.8428ZM37.2307 38.1564C37.354 38.2755 37.5193 38.3415 37.6909 38.34C37.8624 38.3385 38.0265 38.2697 38.1478 38.1484C38.2692 38.0271 38.338 37.8629 38.3394 37.6915C38.3409 37.5199 38.2749 37.3546 38.1558 37.2312L37.6932 36.7679C37.5704 36.6452 37.4039 36.5762 37.2303 36.5762C37.0567 36.5762 36.8901 36.6452 36.7673 36.7679C36.6446 36.8907 36.5756 37.0573 36.5756 37.2308C36.5756 37.4045 36.6446 37.571 36.7673 37.6938L37.2307 38.1564Z" fill="#3F662B"/>
</svg>
