<svg width="12" height="9" viewBox="0 0 12 9" fill="none" xmlns="http://www.w3.org/2000/svg">
<path d="M10.0712 1.58893C9.29979 1.2793 8.48581 1.05832 7.64953 0.931482C7.64195 0.930366 7.63417 0.93133 7.62724 0.934241C7.62032 0.937152 7.6146 0.941868 7.61086 0.947739C7.50603 1.11031 7.39004 1.32296 7.30899 1.48944C6.40755 1.36979 5.49062 1.36979 4.58917 1.48944C4.49877 1.30399 4.3965 1.12313 4.28284 0.947739C4.27903 0.941932 4.27329 0.937271 4.26639 0.934369C4.25949 0.931467 4.25174 0.930461 4.24418 0.931482C3.40771 1.05764 2.59355 1.27874 1.82251 1.58893C1.81591 1.59113 1.81039 1.59527 1.8069 1.60064C0.264821 3.61591 -0.158246 5.58176 0.0491983 7.5229C0.0499419 7.532 0.0566336 7.54111 0.0648124 7.54696C0.962788 8.12872 1.96719 8.5729 3.0352 8.86056C3.04274 8.86264 3.05084 8.86256 3.05833 8.86034C3.06582 8.85812 3.0723 8.85387 3.07684 8.8482C3.30585 8.57508 3.50957 8.287 3.68504 7.98396C3.6887 7.97772 3.68995 7.97061 3.68861 7.96369C3.68727 7.95678 3.68341 7.95043 3.67761 7.94559C3.67377 7.94242 3.66921 7.93998 3.66422 7.93844C3.34388 7.83076 3.03364 7.70139 2.7363 7.55151C2.728 7.54739 2.72182 7.54064 2.71905 7.53265C2.71629 7.52466 2.71714 7.51605 2.72143 7.50859C2.72396 7.50375 2.72779 7.49951 2.73259 7.49623C2.79504 7.45527 2.8575 7.41235 2.91698 7.36943C2.92224 7.36573 2.92854 7.36336 2.93522 7.36255C2.9419 7.36175 2.9487 7.36255 2.9549 7.36487C4.9022 8.14263 7.0101 8.14263 8.9336 7.36487C8.94002 7.36244 8.94708 7.36158 8.95402 7.36238C8.96096 7.36318 8.96752 7.36562 8.97301 7.36943C9.03249 7.41235 9.09494 7.45527 9.1574 7.49623C9.16246 7.49947 9.16653 7.50375 9.16923 7.5087C9.17194 7.51364 9.1732 7.51909 9.17291 7.52457C9.17261 7.53005 9.17077 7.53537 9.16754 7.54008C9.16432 7.54478 9.15981 7.54871 9.15443 7.55151C8.85777 7.70276 8.54713 7.83198 8.22576 7.93779C8.22064 7.93941 8.21598 7.942 8.21213 7.94537C8.20827 7.94874 8.20531 7.95281 8.20345 7.95729C8.20174 7.96164 8.20105 7.96624 8.20143 7.97083C8.20181 7.97541 8.20326 7.97988 8.20569 7.98396C8.38413 8.28635 8.5886 8.57508 8.81315 8.8482C8.81768 8.85387 8.82417 8.85812 8.83165 8.86034C8.83914 8.86256 8.84724 8.86264 8.85478 8.86056C9.92458 8.57379 10.9306 8.12956 11.8296 7.54696C11.8341 7.54423 11.8379 7.54065 11.8406 7.53649C11.8433 7.53232 11.8449 7.52768 11.8452 7.5229C12.0936 5.27872 11.4296 3.32913 10.0861 1.60129C10.0847 1.59843 10.0827 1.59586 10.0801 1.59373C10.0776 1.5916 10.0745 1.58997 10.0712 1.58893ZM3.97576 6.34066C3.38912 6.34066 2.90657 5.86984 2.90657 5.29238C2.90657 4.71426 3.3802 4.24345 3.97576 4.24345C4.57579 4.24345 5.05388 4.71816 5.04495 5.29238C5.04495 5.86984 4.57133 6.34066 3.97576 6.34066ZM7.92835 6.34066C7.34245 6.34066 6.85916 5.86984 6.85916 5.29238C6.85916 4.71426 7.33279 4.24345 7.92835 4.24345C8.52838 4.24345 9.00721 4.71816 8.99754 5.29238C8.99754 5.86984 8.52838 6.34066 7.92835 6.34066Z" fill="white"/>
</svg>
