<svg width="13" height="13" viewBox="0 0 13 13" fill="none" xmlns="http://www.w3.org/2000/svg">
<path fill-rule="evenodd" clip-rule="evenodd" d="M3.66833 0.587447C4.30263 0.558247 4.50487 0.551758 6.12064 0.551758C7.73641 0.551758 7.93865 0.558788 8.57241 0.587447C9.20617 0.616107 9.63877 0.717228 10.0173 0.863772C10.4137 1.01356 10.7733 1.24771 11.0707 1.55053C11.3735 1.8474 11.6071 2.20646 11.7564 2.60337C11.9034 2.9819 12.004 3.4145 12.0332 4.04718C12.0624 4.68257 12.0689 4.88481 12.0689 6.50003C12.0689 8.1158 12.0619 8.31804 12.0332 8.95235C12.0046 9.58503 11.9034 10.0176 11.7564 10.3962C11.6071 10.7931 11.3731 11.1528 11.0707 11.4501C10.7733 11.7529 10.4137 11.9865 10.0173 12.1358C9.63877 12.2828 9.20617 12.3834 8.57349 12.4126C7.93865 12.4418 7.73641 12.4483 6.12064 12.4483C4.50487 12.4483 4.30263 12.4413 3.66833 12.4126C3.03565 12.384 2.60305 12.2828 2.22452 12.1358C1.82756 11.9865 1.46791 11.7525 1.17059 11.4501C0.867976 11.153 0.633795 10.7935 0.484377 10.3967C0.337834 10.0182 0.237254 9.58557 0.208053 8.95289C0.178852 8.3175 0.172363 8.11526 0.172363 6.50003C0.172363 4.88427 0.179393 4.68202 0.208053 4.04826C0.236713 3.4145 0.337834 2.9819 0.484377 2.60337C0.634016 2.2065 0.868376 1.84703 1.17113 1.54999C1.46803 1.24744 1.82732 1.01326 2.22398 0.863772C2.6025 0.717228 3.03511 0.616648 3.66779 0.587447H3.66833ZM8.52428 1.65814C7.89701 1.62948 7.70883 1.62353 6.12064 1.62353C4.53245 1.62353 4.34427 1.62948 3.71699 1.65814C3.13677 1.68463 2.82205 1.78143 2.61224 1.86308C2.33483 1.97123 2.13638 2.09939 1.92819 2.30758C1.73084 2.49958 1.57896 2.73331 1.48369 2.99163C1.40203 3.20144 1.30524 3.51616 1.27874 4.09639C1.25008 4.72366 1.24413 4.91184 1.24413 6.50003C1.24413 8.08822 1.25008 8.2764 1.27874 8.90368C1.30524 9.4839 1.40203 9.79862 1.48369 10.0084C1.57886 10.2664 1.73081 10.5005 1.92819 10.6925C2.12015 10.8899 2.3543 11.0418 2.61224 11.137C2.82205 11.2186 3.13677 11.3154 3.71699 11.3419C4.34427 11.3706 4.53191 11.3765 6.12064 11.3765C7.70937 11.3765 7.89701 11.3706 8.52428 11.3419C9.10451 11.3154 9.41923 11.2186 9.62904 11.137C9.90645 11.0288 10.1049 10.9007 10.3131 10.6925C10.5105 10.5005 10.6624 10.2664 10.7576 10.0084C10.8392 9.79862 10.936 9.4839 10.9625 8.90368C10.9912 8.2764 10.9971 8.08822 10.9971 6.50003C10.9971 4.91184 10.9912 4.72366 10.9625 4.09639C10.936 3.51616 10.8392 3.20144 10.7576 2.99163C10.6494 2.71423 10.5213 2.51577 10.3131 2.30758C10.1211 2.11024 9.88736 1.95837 9.62904 1.86308C9.41923 1.78143 9.10451 1.68463 8.52428 1.65814ZM5.36088 8.33372C5.78519 8.51035 6.25765 8.53419 6.69758 8.40117C7.13751 8.26815 7.51761 7.98652 7.77297 7.60438C8.02832 7.22225 8.14308 6.76331 8.09766 6.30596C8.05223 5.84861 7.84943 5.42122 7.52389 5.09678C7.31637 4.88939 7.06545 4.73059 6.78919 4.63181C6.51293 4.53304 6.21821 4.49674 5.92624 4.52554C5.63427 4.55434 5.35231 4.64751 5.10067 4.79836C4.84904 4.9492 4.63397 5.15396 4.47097 5.3979C4.30796 5.64184 4.20107 5.91888 4.15799 6.20909C4.1149 6.49929 4.1367 6.79544 4.22181 7.07621C4.30692 7.35699 4.45322 7.61539 4.65018 7.83284C4.84715 8.05028 5.08987 8.22135 5.36088 8.33372ZM3.95871 4.33811C4.24262 4.0542 4.57967 3.82899 4.95061 3.67534C5.32156 3.52169 5.71913 3.44261 6.12064 3.44261C6.52215 3.44261 6.91972 3.52169 7.29067 3.67534C7.66161 3.82899 7.99866 4.0542 8.28257 4.33811C8.56648 4.62201 8.79168 4.95906 8.94533 5.33001C9.09898 5.70095 9.17807 6.09853 9.17807 6.50003C9.17807 6.90154 9.09898 7.29912 8.94533 7.67006C8.79168 8.041 8.56648 8.37805 8.28257 8.66196C7.70919 9.23534 6.93152 9.55746 6.12064 9.55746C5.30976 9.55746 4.53209 9.23534 3.95871 8.66196C3.38533 8.08858 3.06321 7.31091 3.06321 6.50003C3.06321 5.68915 3.38533 4.91148 3.95871 4.33811ZM9.85616 3.89793C9.92651 3.83157 9.98283 3.75176 10.0218 3.66323C10.0607 3.57471 10.0815 3.47927 10.083 3.38256C10.0844 3.28585 10.0664 3.18984 10.03 3.10022C9.99364 3.0106 9.93967 2.92918 9.87128 2.86079C9.80289 2.7924 9.72147 2.73843 9.63185 2.70207C9.54222 2.66571 9.44622 2.6477 9.34951 2.64911C9.2528 2.65052 9.15736 2.67132 9.06884 2.71028C8.98031 2.74923 8.9005 2.80556 8.83413 2.87591C8.70506 3.01274 8.6344 3.19448 8.63714 3.38256C8.63988 3.57064 8.71581 3.75024 8.84882 3.88325C8.98182 4.01625 9.16143 4.09219 9.34951 4.09493C9.53759 4.09767 9.71933 4.02701 9.85616 3.89793Z" fill="#011C2A"/>
</svg>
