<svg width="17" height="16" viewBox="0 0 17 16" fill="none" xmlns="http://www.w3.org/2000/svg">
<g clip-path="url(#clip0_56_4447)">
<path d="M15.59 0.26001H13.63C13.5114 0.26001 13.3968 0.30313 13.3066 0.38153L6.54264 6.31151C6.19278 6.23801 5.65182 6.14001 5.3 6.14001C2.59814 6.14001 0.400002 8.33815 0.400002 11.04C0.400002 13.7419 2.59814 15.94 5.3 15.94C8.00186 15.94 10.2 13.7419 10.2 11.04C10.2 10.2374 10.0471 9.69937 9.87366 9.25249L11.5416 8.68605C11.6404 8.65249 11.7258 8.5883 11.7856 8.50282C11.8453 8.41734 11.8763 8.31502 11.8738 8.21075L11.8327 6.35071L13.7045 6.22037C13.8256 6.21193 13.9392 6.15885 14.0234 6.0714C14.1076 5.98395 14.1563 5.86836 14.1602 5.74703L14.2298 3.51361L15.6958 3.18825C15.8047 3.16416 15.9022 3.10364 15.972 3.01668C16.0419 2.92973 16.08 2.82154 16.08 2.71001V0.75001C16.08 0.620054 16.0284 0.49542 15.9365 0.403527C15.8446 0.311635 15.72 0.26001 15.59 0.26001ZM3.83 11.04C4.21975 11.0404 4.59342 11.1954 4.86902 11.471C5.14461 11.7466 5.29961 12.1203 5.3 12.51C5.2901 12.8933 5.13089 13.2576 4.85629 13.5252C4.58169 13.7928 4.21343 13.9425 3.83 13.9425C3.44658 13.9425 3.07832 13.7928 2.80372 13.5252C2.52912 13.2576 2.3699 12.8933 2.36 12.51C2.36 11.6986 3.01856 11.04 3.83 11.04Z" fill="white"/>
</g>
<defs>
<clipPath id="clip0_56_4447">
<rect width="15.68" height="15.68" fill="white" transform="translate(0.400002 0.26001)"/>
</clipPath>
</defs>
</svg>
