<svg width="13" height="10" viewBox="0 0 13 10" fill="none" xmlns="http://www.w3.org/2000/svg">
<path d="M12.2414 1.26847C11.8039 1.45431 11.3278 1.58806 10.8374 1.64015C11.3466 1.34229 11.7278 0.871729 11.9097 0.316745C11.432 0.596616 10.9086 0.792866 10.3628 0.89679C10.1347 0.656644 9.85876 0.465332 9.55228 0.334777C9.2458 0.204221 8.91529 0.137219 8.58136 0.137945C7.23029 0.137945 6.14372 1.21638 6.14372 2.53978C6.14372 2.72562 6.1666 2.91146 6.20377 3.09026C4.18074 2.98608 2.37646 2.03435 1.17694 0.577202C0.95837 0.94482 0.843834 1.3634 0.845244 1.78938C0.845244 2.62284 1.27558 3.35776 1.93182 3.78997C1.54509 3.77498 1.16742 3.6703 0.829518 3.48446V3.51403C0.829518 4.68116 1.66732 5.64837 2.78392 5.87081C2.57427 5.92444 2.35859 5.95187 2.14198 5.95247C1.98329 5.95247 1.83317 5.93698 1.68162 5.91586C1.99044 6.86759 2.88972 7.55886 3.96057 7.58138C3.12276 8.2276 2.07336 8.60772 0.933886 8.60772C0.729439 8.60772 0.540718 8.60068 0.344849 8.57816C1.4257 9.26098 2.70815 9.65518 4.08924 9.65518C8.57279 9.65518 11.0262 5.99752 11.0262 2.82276C11.0262 2.71858 11.0262 2.6144 11.019 2.51021C11.4937 2.1681 11.9097 1.74433 12.2414 1.26847Z" fill="white"/>
</svg>
