<svg width="24" height="24" viewBox="0 0 24 24" fill="none" xmlns="http://www.w3.org/2000/svg">
<path d="M21.8387 5.15942C22.1794 5.51059 22.4213 5.94542 22.5401 6.42001C22.8573 8.17871 23.0113 9.96297 23.0001 11.75C23.0064 13.5103 22.8524 15.2676 22.5401 17C22.4213 17.4746 22.1794 17.9094 21.8387 18.2606C21.4981 18.6118 21.0708 18.8668 20.6001 19C18.8801 19.46 12.0001 19.46 12.0001 19.46C12.0001 19.46 5.12008 19.46 3.40008 19C2.9389 18.8738 2.51806 18.6308 2.17823 18.2945C1.83839 17.9582 1.59104 17.5399 1.46008 17.08C1.14285 15.3213 0.988863 13.5371 1.00008 11.75C0.991319 9.97632 1.1453 8.20557 1.46008 6.46001C1.57887 5.98542 1.8208 5.55059 2.16143 5.19942C2.50206 4.84825 2.92933 4.59319 3.40008 4.46C4.10969 4.25924 8.05674 4.00473 12.0001 4.00002C15.9882 3.99525 19.9724 4.24243 20.6001 4.42C21.0708 4.55319 21.4981 4.80825 21.8387 5.15942Z" stroke="#FFA552" stroke-width="2" stroke-linecap="round" stroke-linejoin="round"/>
</svg>
